<svg width="490" height="312" viewBox="0 0 490 312" fill="none" xmlns="http://www.w3.org/2000/svg">
<path fill-rule="evenodd" clip-rule="evenodd" d="M150.189 88.1117C150.189 82.2262 149.032 76.3982 146.784 70.9606C144.537 65.5231 141.242 60.5824 137.089 56.4206C132.936 52.2589 128.006 48.9576 122.579 46.7053C117.153 44.453 111.337 43.2938 105.464 43.2938C99.5906 43.2938 93.7748 44.453 88.3485 46.7053C82.9223 48.9576 77.9918 52.2589 73.8388 56.4206C69.6857 60.5824 66.3913 65.5231 64.1437 70.9606C61.896 76.3982 60.7392 82.2262 60.7392 88.1117C60.7392 93.9973 61.896 99.8253 64.1437 105.263C66.3913 110.7 69.6857 115.641 73.8388 119.803C77.9918 123.965 82.9223 127.266 88.3485 129.518C93.7748 131.77 99.5906 132.93 105.464 132.93C111.337 132.93 117.153 131.77 122.579 129.518C128.006 127.266 132.936 123.965 137.089 119.803C141.242 115.641 144.537 110.7 146.784 105.263C149.032 99.8253 150.189 93.9973 150.189 88.1117Z" fill="#2169D6"/>
<path fill-rule="evenodd" clip-rule="evenodd" d="M70.4444 101.782V74.4311H91.8181V53.0128H119.112V76.5267H140.486V99.6878H119.112V121.525H91.8181V101.782H70.4444Z" fill="white"/>
<path fill-rule="evenodd" clip-rule="evenodd" d="M109.316 52.9575C108.727 53.0628 108.143 53.1342 107.544 53.1682V54.2558C108.374 54.5123 109.139 54.8781 109.917 55.259L110.823 55.7998L111.649 56.3925L112.396 57.0316L113.067 57.7112L113.664 58.4252L114.19 59.1676L114.649 59.9317L115.045 60.7126L115.38 61.504L115.661 62.301L116.075 63.8927L116.319 65.4503C116.387 66.1866 116.427 66.9077 116.441 67.6486C116.433 68.2957 116.408 68.9338 116.363 69.5805C116.273 70.5283 116.148 71.4584 115.962 72.3928C115.869 72.8606 115.69 73.2939 115.519 73.7388C115.234 74.4079 114.926 75.0447 114.582 75.6857C114.059 76.6005 113.496 77.4607 112.874 78.3108C111.655 79.9144 110.306 81.4179 108.759 82.7114L108.493 82.9207V98.8139C110.323 100.242 112.022 101.901 113.366 103.802C113.894 104.584 114.382 105.402 114.671 106.308C114.757 106.609 114.807 106.92 114.868 107.229C114.953 107.879 114.994 108.482 114.992 109.139L114.871 110.328L114.608 111.442L114.226 112.475C113.996 112.961 113.754 113.41 113.474 113.869C113.189 114.29 112.896 114.684 112.575 115.078L111.926 115.786C110.893 116.797 109.757 117.679 108.493 118.384V132.795L108.074 133.492L107.746 133.912L107.378 134.27L106.972 134.561L106.536 134.779L106.081 134.918L105.619 134.979L105.164 134.965L104.727 134.883L104.313 134.74L103.929 134.544L103.575 134.301L103.255 134.018L102.97 133.697L102.723 133.342L102.415 132.763V128.523L100.006 126.826L99.4923 126.29C98.9133 125.461 98.5413 124.508 98.4738 123.494C98.4842 123.335 98.4599 123.174 98.4492 123.017C98.4534 122.71 98.4776 122.435 98.5273 122.134C98.662 121.556 98.8581 121.074 99.1412 120.555C99.9671 119.177 101.144 118.066 102.415 117.103V102.301C101.225 101.337 100.186 100.251 99.2255 99.0607C98.8561 98.5683 98.5108 98.0748 98.1774 97.5581C97.896 97.087 97.6345 96.6166 97.386 96.1277C97.0004 95.3029 96.6867 94.4927 96.434 93.6187C96.2288 92.825 96.0792 92.0432 96.0367 91.2249C96.0218 90.7159 96.0523 90.2069 96.0845 89.7C96.1681 88.9043 96.2922 88.151 96.4673 87.3716C96.6131 86.8182 96.7741 86.2828 96.9572 85.7423C97.3414 84.7197 97.7821 83.77 98.3084 82.8147C99.4381 80.8798 100.801 79.123 102.415 77.5713V71.922L103.365 70.6876V63.2326C103.027 63.5829 102.681 64.0148 102.235 64.2264C101.668 64.6996 101.081 65.067 100.42 65.3947L99.7124 65.6694C99.1292 65.8371 98.5655 65.9516 97.956 65.9012C97.5877 65.8528 97.2734 65.6656 96.9542 65.482L96.6237 65.2057C96.0715 65.7179 95.5663 66.2778 95.0718 66.8477C94.306 67.7505 93.5709 68.6856 92.8896 69.6563L90.4149 71.4854L90.5494 69.2617L89.1167 69.1851C90.6 67.8696 90.6838 67.2848 92.1338 65.9342C92.7841 65.3215 93.4232 64.6985 94.0533 64.0671L93.7599 63.699L93.4738 63.1196C93.3918 62.8155 93.351 62.5586 93.3341 62.2452L93.3699 61.696C93.6231 60.181 94.416 58.7913 95.2849 57.5467C95.6576 57.1106 96.0319 56.7069 96.4417 56.3077C96.8268 55.965 97.2106 55.6525 97.6239 55.3468C98.0154 55.0834 98.4031 54.8446 98.8152 54.6168C99.5597 54.2441 100.28 53.9623 101.081 53.7399C101.837 53.5582 102.587 53.4354 103.365 53.4249V52.6717C102.029 52.2769 100.818 51.6031 99.7607 50.6977C99.5359 50.4904 99.3238 50.2799 99.114 50.0553C98.566 49.421 98.1556 48.7867 97.8111 48.0202C97.6563 47.6319 97.5346 47.2553 97.4324 46.8484C97.3163 46.2834 97.2663 45.7552 97.2566 45.1778C97.2776 44.7172 97.3242 44.2898 97.4021 43.8345C97.5063 43.3872 97.6287 42.9723 97.7836 42.5393C97.9626 42.1132 98.1545 41.7177 98.3773 41.3125C98.6234 40.9141 98.8781 40.5433 99.1615 40.1699C99.5744 39.6746 99.9961 39.2352 100.471 38.7992C100.98 38.3701 101.489 37.994 102.047 37.6317C102.639 37.2796 103.224 36.9791 103.854 36.7006C104.518 36.4371 105.167 36.2245 105.857 36.0417C106.388 35.9229 106.908 35.8285 107.446 35.7523C107.972 35.6994 108.484 35.6675 109.012 35.6566C109.695 35.6696 110.345 35.7202 111.022 35.8165C111.506 35.9058 111.972 36.0116 112.447 36.1417C113.059 36.3376 113.623 36.5591 114.202 36.8354C114.612 37.0554 114.996 37.2851 115.384 37.5439C115.752 37.8179 116.088 38.0961 116.425 38.4077C116.742 38.7348 117.023 39.0595 117.3 39.4207C117.557 39.8 117.773 40.1666 117.981 40.5742C118.165 41.0009 118.309 41.4053 118.437 41.8519C118.536 42.3121 118.6 42.743 118.638 43.2112C118.646 43.675 118.626 44.1051 118.576 44.5651C118.499 45.0188 118.401 45.4383 118.271 45.8785C118.116 46.3135 117.946 46.7157 117.745 47.1301C117.52 47.5394 117.286 47.9185 117.022 48.3021C116.734 48.6811 116.441 49.0313 116.122 49.3814C115.778 49.7256 115.431 50.0435 115.06 50.3557C114.39 50.875 113.723 51.305 112.979 51.7082C112.511 51.9376 112.048 52.1424 111.565 52.3335C110.821 52.595 110.089 52.8065 109.316 52.9575V52.9575ZM102.415 126.729V123.026C102.131 123.367 101.843 123.723 101.606 124.101C101.67 124.568 101.769 125.032 101.914 125.482C102.059 125.904 102.247 126.315 102.415 126.729V126.729ZM102.401 90.3343C102.379 90.4436 102.384 90.4657 102.415 90.5814V90.2712L102.401 90.3343ZM102.415 90.6387C102.359 91.0964 102.333 91.4865 102.415 91.9434V90.6387ZM108.792 107.756C108.695 107.637 108.595 107.52 108.493 107.405V112.336L109.64 110.333C109.709 109.956 109.667 109.643 109.6 109.269C109.462 108.693 109.151 108.216 108.792 107.756ZM107.945 64.0561C107.817 63.8808 107.685 63.7068 107.544 63.5422V70.6843L107.94 71.1821C108.431 70.3812 108.751 69.4951 108.95 68.5814C109.006 68.2164 109.041 67.8725 109.055 67.5044C109.042 66.877 108.962 66.3304 108.786 65.7292C108.576 65.1184 108.313 64.5848 107.945 64.0561V64.0561Z" stroke="black" stroke-width="0.100629"/>
<path fill-rule="evenodd" clip-rule="evenodd" d="M109.316 52.9575C108.727 53.0628 108.143 53.1342 107.544 53.1682V54.2558C108.374 54.5123 109.139 54.8781 109.917 55.259L110.823 55.7998L111.649 56.3925L112.396 57.0316L113.067 57.7112L113.664 58.4252L114.19 59.1676L114.649 59.9317L115.045 60.7126L115.38 61.504L115.661 62.301L116.075 63.8927L116.319 65.4503C116.387 66.1866 116.427 66.9077 116.441 67.6486C116.433 68.2957 116.408 68.9338 116.363 69.5805C116.273 70.5283 116.148 71.4584 115.962 72.3928C115.869 72.8606 115.69 73.2939 115.519 73.7388C115.234 74.4079 114.926 75.0447 114.582 75.6857C114.059 76.6005 113.496 77.4607 112.874 78.3108C111.655 79.9144 110.306 81.4179 108.759 82.7114L108.493 82.9207V98.8139C110.323 100.242 112.022 101.901 113.366 103.802C113.894 104.584 114.382 105.402 114.671 106.308C114.757 106.609 114.807 106.92 114.868 107.229C114.953 107.879 114.994 108.482 114.992 109.139L114.871 110.328L114.608 111.442L114.226 112.475C113.996 112.961 113.754 113.41 113.474 113.869C113.189 114.29 112.896 114.684 112.575 115.078L111.926 115.786C110.893 116.797 109.757 117.679 108.493 118.384V132.795L108.074 133.492L107.746 133.912L107.378 134.27L106.972 134.561L106.536 134.779L106.081 134.918L105.619 134.979L105.164 134.965L104.727 134.883L104.313 134.74L103.929 134.544L103.575 134.301L103.255 134.018L102.97 133.697L102.723 133.342L102.415 132.763V128.523L100.006 126.826L99.4923 126.29C98.9134 125.461 98.5413 124.508 98.4738 123.494C98.4842 123.335 98.4599 123.174 98.4492 123.017C98.4534 122.71 98.4776 122.435 98.5273 122.134C98.662 121.556 98.8581 121.074 99.1412 120.555C99.9671 119.177 101.144 118.066 102.415 117.103V102.301C101.225 101.337 100.186 100.251 99.2255 99.0607C98.8561 98.5683 98.5108 98.0748 98.1774 97.5581C97.896 97.087 97.6345 96.6166 97.386 96.1277C97.0004 95.3029 96.6867 94.4927 96.434 93.6187C96.2288 92.825 96.0792 92.0432 96.0367 91.2249C96.0218 90.7159 96.0523 90.2069 96.0845 89.7C96.1681 88.9043 96.2922 88.151 96.4673 87.3716C96.6131 86.8182 96.7741 86.2828 96.9572 85.7423C97.3414 84.7197 97.7821 83.77 98.3084 82.8147C99.4381 80.8798 100.801 79.123 102.415 77.5713V71.922L103.365 70.6876V63.2326C103.027 63.5829 102.681 64.0148 102.235 64.2264C101.668 64.6996 101.081 65.067 100.42 65.3947L99.7124 65.6694C99.1292 65.8371 98.5655 65.9516 97.956 65.9012C97.5877 65.8528 97.2734 65.6656 96.9542 65.482L96.6237 65.2057C96.0715 65.7179 95.5663 66.2778 95.0718 66.8477C94.306 67.7505 93.5709 68.6856 92.8896 69.6563L90.4149 71.4854L90.5494 69.2617L89.1167 69.1851C90.6 67.8696 90.6838 67.2848 92.1338 65.9342C92.7841 65.3215 93.4232 64.6985 94.0533 64.0671L93.7599 63.699L93.4738 63.1196C93.3918 62.8155 93.351 62.5586 93.3341 62.2452L93.3699 61.6959C93.6231 60.181 94.416 58.7913 95.2849 57.5467C95.6576 57.1106 96.0319 56.7069 96.4417 56.3077C96.8268 55.965 97.2106 55.6525 97.6239 55.3468C98.0154 55.0834 98.4031 54.8446 98.8152 54.6168C99.5597 54.2441 100.28 53.9623 101.081 53.7399C101.837 53.5582 102.587 53.4354 103.365 53.4249V52.6717C102.029 52.2769 100.818 51.6031 99.7607 50.6977C99.5359 50.4904 99.3238 50.2799 99.114 50.0553C98.566 49.421 98.1556 48.7867 97.8111 48.0202C97.6563 47.6319 97.5346 47.2553 97.4324 46.8484C97.3163 46.2834 97.2663 45.7552 97.2566 45.1778C97.2776 44.7172 97.3242 44.2898 97.4021 43.8345C97.5063 43.3872 97.6287 42.9723 97.7836 42.5393C97.9626 42.1132 98.1545 41.7177 98.3773 41.3125C98.6234 40.9141 98.8781 40.5433 99.1615 40.1699C99.5744 39.6746 99.9961 39.2352 100.471 38.7992C100.98 38.3701 101.489 37.994 102.047 37.6317C102.639 37.2796 103.224 36.9791 103.854 36.7006C104.518 36.4371 105.167 36.2245 105.857 36.0417C106.388 35.9229 106.908 35.8285 107.446 35.7523C107.972 35.6994 108.484 35.6675 109.012 35.6566C109.695 35.6696 110.345 35.7202 111.022 35.8165C111.506 35.9058 111.972 36.0116 112.447 36.1417C113.059 36.3376 113.623 36.5591 114.202 36.8354C114.612 37.0554 114.996 37.2851 115.384 37.5439C115.752 37.8179 116.088 38.0961 116.425 38.4077C116.742 38.7348 117.023 39.0595 117.3 39.4207C117.557 39.8 117.773 40.1666 117.981 40.5742C118.165 41.0009 118.309 41.4053 118.437 41.8519C118.536 42.3121 118.6 42.743 118.638 43.2112C118.646 43.675 118.626 44.1051 118.576 44.5651C118.499 45.0188 118.401 45.4383 118.271 45.8785C118.116 46.3135 117.946 46.7157 117.745 47.1301C117.52 47.5394 117.286 47.9185 117.022 48.3021C116.734 48.6811 116.441 49.0313 116.122 49.3814C115.778 49.7256 115.431 50.0435 115.06 50.3557C114.39 50.875 113.723 51.305 112.979 51.7082C112.511 51.9376 112.048 52.1424 111.565 52.3335C110.821 52.595 110.089 52.8065 109.316 52.9575ZM102.415 126.729V123.026C102.131 123.367 101.843 123.723 101.606 124.101C101.67 124.568 101.769 125.032 101.914 125.482C102.059 125.904 102.247 126.315 102.415 126.729ZM102.401 90.3343C102.379 90.4436 102.384 90.4657 102.415 90.5814V90.2712L102.401 90.3343ZM102.415 90.6387C102.359 91.0964 102.333 91.4865 102.415 91.9434V90.6387ZM108.792 107.756C108.695 107.637 108.595 107.52 108.493 107.405V112.336L109.64 110.333C109.709 109.956 109.667 109.643 109.6 109.269C109.462 108.693 109.151 108.216 108.792 107.756ZM107.945 64.0561C107.817 63.8808 107.685 63.7068 107.544 63.5422V70.6843L107.94 71.1821C108.431 70.3812 108.751 69.4951 108.95 68.5814C109.006 68.2164 109.041 67.8725 109.055 67.5044C109.042 66.877 108.962 66.3304 108.786 65.7292C108.576 65.1184 108.313 64.5848 107.945 64.0561Z" fill="#335965"/>
<path fill-rule="evenodd" clip-rule="evenodd" d="M94.8077 63.1838C93.568 61.8467 96.1871 58.2477 96.1871 58.2477C99.76 53.8701 104.493 54.5415 104.462 54.6933L104.505 54.7004V51.7911C101.388 51.1098 98.992 49.0956 98.4912 46.3374C97.7525 42.2739 101.4 38.0992 106.611 37.0442C111.821 35.9891 116.673 38.4428 117.411 42.506C118.149 46.5692 114.502 50.7436 109.291 51.799C108.307 51.998 107.337 52.072 106.404 52.0336V55.0997C118.36 58.3199 114.807 72.1398 114.807 72.3648C113.163 77.4465 108.244 81.8625 107.353 82.3164V99.3725C112.592 103.391 113.557 106.419 113.625 106.819C115.103 113.257 109.12 116.806 107.353 117.7V132.478C106.233 134.596 104.232 133.955 103.555 132.478V120.265C101.689 121.876 100.696 123.343 100.425 123.852C100.578 125.283 100.916 126.071 100.916 126.071C99.856 125.439 99.5279 123.405 99.6355 123.405C99.2 121.174 101.908 118.858 103.555 117.68V101.755C96.9433 96.5897 97.1726 90.9253 97.1726 90.9253C97.1736 84.8176 101.367 80.083 103.555 78.064V72.3116L104.496 71.0888H104.505V61.0727C103.929 61.1815 103.576 61.4065 103.576 61.4065C102.132 62.8063 101.847 63.2554 101.704 63.1838C99.6427 65.0016 98.0587 64.7628 98.0587 64.7628C96.4771 64.1631 97.9232 63.4835 97.271 63.2823C95.1034 64.4672 91.9507 69.0085 91.9507 69.0085L92.6404 67.6265L91.7538 67.8239C94.2169 65.6521 96.8766 62.7889 96.8766 62.7889C96.9545 62.6474 96.9518 62.2331 96.6554 62.3841C95.7228 63.7358 94.9411 63.2059 94.8077 63.1838V63.1838ZM103.555 85.7048C101.976 87.8393 101.063 90.1338 101.262 90.6812C100.946 92.8048 102.317 94.8633 103.555 96.2416V85.7048V85.7048ZM107.353 114.989C109.705 113.065 111.126 111.156 110.768 109.386C110.607 107.501 108.497 105.73 107.353 104.842V114.989V114.989ZM107.353 73.9238C112.662 67.8157 108.977 63.5306 108.6 63.0313C107.843 62.0701 107.089 61.5402 106.404 61.2671V71.0888H106.408L107.353 72.2781V73.9238V73.9238Z" stroke="#739FAD" stroke-width="0.269998"/>
<path fill-rule="evenodd" clip-rule="evenodd" d="M94.8077 63.1838C93.568 61.8467 96.1871 58.2477 96.1871 58.2477C99.76 53.8701 104.493 54.5415 104.462 54.6933L104.505 54.7004V51.7911C101.388 51.1098 98.992 49.0956 98.4912 46.3374C97.7525 42.2739 101.4 38.0992 106.611 37.0442C111.821 35.9891 116.673 38.4428 117.411 42.506C118.149 46.5692 114.502 50.7436 109.291 51.799C108.307 51.998 107.337 52.072 106.404 52.0336V55.0997C118.36 58.3199 114.807 72.1398 114.807 72.3648C113.163 77.4465 108.244 81.8625 107.353 82.3164V99.3725C112.592 103.391 113.557 106.419 113.625 106.819C115.103 113.257 109.12 116.806 107.353 117.7V132.478C106.233 134.596 104.232 133.955 103.555 132.478V120.265C101.689 121.876 100.696 123.343 100.425 123.852C100.578 125.283 100.916 126.071 100.916 126.071C99.856 125.439 99.5279 123.405 99.6355 123.405C99.2 121.174 101.908 118.858 103.555 117.68V101.755C96.9433 96.5897 97.1726 90.9253 97.1726 90.9253C97.1736 84.8176 101.367 80.083 103.555 78.064V72.3116L104.496 71.0888H104.505V61.0727C103.929 61.1815 103.576 61.4065 103.576 61.4065C102.132 62.8063 101.847 63.2554 101.704 63.1838C99.6427 65.0016 98.0587 64.7628 98.0587 64.7628C96.4771 64.1631 97.9232 63.4835 97.271 63.2823C95.1034 64.4672 91.9507 69.0085 91.9507 69.0085L92.6404 67.6265L91.7538 67.8239C94.2169 65.6521 96.8766 62.7889 96.8766 62.7889C96.9545 62.6474 96.9518 62.2331 96.6554 62.3841C95.7228 63.7358 94.9411 63.2059 94.8077 63.1838ZM103.555 85.7048C101.976 87.8393 101.063 90.1338 101.262 90.6812C100.946 92.8048 102.317 94.8633 103.555 96.2416V85.7048ZM107.353 114.989C109.705 113.065 111.126 111.156 110.768 109.386C110.607 107.501 108.497 105.73 107.353 104.842V114.989ZM107.353 73.9238C112.662 67.8157 108.977 63.5306 108.6 63.0313C107.843 62.0701 107.089 61.5402 106.404 61.2671V71.0888H106.408L107.353 72.2781V73.9238Z" fill="#DEEFFF"/>
<path d="M157.002 55.778H157.362C157.818 55.778 158.202 56.03 158.514 56.534L164.706 65.534V56.48C164.706 56.228 164.76 56.048 164.868 55.94C164.976 55.832 165.15 55.778 165.39 55.778H165.552C166.02 55.778 166.254 56.012 166.254 56.48V67.136C166.254 67.388 166.194 67.598 166.074 67.766C165.954 67.922 165.78 68 165.552 68H165.318C164.862 68 164.424 67.694 164.004 67.082L157.83 58.1V67.316C157.83 67.772 157.614 68 157.182 68H157.002C156.522 68 156.282 67.772 156.282 67.316V56.66C156.282 56.072 156.522 55.778 157.002 55.778ZM170.373 59.126H170.481C170.937 59.126 171.165 59.348 171.165 59.792V67.316C171.165 67.772 170.937 68 170.481 68H170.373C169.917 68 169.689 67.772 169.689 67.316V59.792C169.689 59.348 169.917 59.126 170.373 59.126ZM169.437 56.588C169.437 56.312 169.533 56.078 169.725 55.886C169.917 55.682 170.145 55.58 170.409 55.58C170.685 55.58 170.919 55.682 171.111 55.886C171.315 56.078 171.417 56.312 171.417 56.588C171.417 56.852 171.321 57.086 171.129 57.29C170.937 57.482 170.703 57.578 170.427 57.578C170.151 57.578 169.917 57.482 169.725 57.29C169.533 57.098 169.437 56.864 169.437 56.588ZM173.536 63.59C173.536 62.09 173.956 60.944 174.796 60.152C175.636 59.36 176.602 58.964 177.694 58.964C178.786 58.964 179.65 59.246 180.286 59.81C180.922 60.362 181.24 61.052 181.24 61.88C181.24 62.708 180.91 63.356 180.25 63.824C179.602 64.28 178.762 64.508 177.73 64.508C176.698 64.508 175.768 64.346 174.94 64.022C174.94 64.898 175.24 65.606 175.84 66.146C176.44 66.674 177.172 66.938 178.036 66.938C179.38 66.938 180.22 66.524 180.556 65.696C180.76 65.696 180.934 65.756 181.078 65.876C181.222 65.984 181.294 66.146 181.294 66.362C181.294 66.782 180.982 67.184 180.358 67.568C179.746 67.952 178.966 68.144 178.018 68.144C176.746 68.144 175.678 67.76 174.814 66.992C173.962 66.224 173.536 65.09 173.536 63.59ZM179.872 61.826C179.872 61.358 179.668 60.962 179.26 60.638C178.864 60.314 178.312 60.152 177.604 60.152C176.908 60.152 176.296 60.434 175.768 60.998C175.24 61.562 174.97 62.198 174.958 62.906C175.822 63.194 176.68 63.338 177.532 63.338C179.092 63.338 179.872 62.834 179.872 61.826ZM184.024 59.126H184.15C184.606 59.126 184.834 59.336 184.834 59.756V60.458C185.086 60.038 185.464 59.684 185.968 59.396C186.472 59.108 187.018 58.964 187.606 58.964C188.722 58.964 189.622 59.342 190.306 60.098C191.002 60.842 191.35 61.982 191.35 63.518C191.35 65.042 190.942 66.194 190.126 66.974C189.322 67.754 188.332 68.144 187.156 68.144C186.352 68.144 185.578 67.94 184.834 67.532V71.402C184.834 71.846 184.606 72.068 184.15 72.068H184.024C183.568 72.068 183.34 71.846 183.34 71.402V59.792C183.34 59.348 183.568 59.126 184.024 59.126ZM189.856 63.5C189.856 62.36 189.616 61.532 189.136 61.016C188.656 60.488 188.008 60.224 187.192 60.224C186.376 60.224 185.776 60.584 185.392 61.304C185.02 62.024 184.834 62.96 184.834 64.112V66.362C184.954 66.446 185.248 66.56 185.716 66.704C186.196 66.836 186.676 66.902 187.156 66.902C187.96 66.902 188.608 66.62 189.1 66.056C189.604 65.492 189.856 64.64 189.856 63.5ZM194.092 59.144H194.218C194.674 59.144 194.902 59.366 194.902 59.81V64.436C194.902 66.08 195.628 66.902 197.08 66.902C197.632 66.902 198.094 66.74 198.466 66.416C199.138 65.84 199.474 64.976 199.474 63.824V59.81C199.474 59.366 199.708 59.144 200.176 59.144H200.302C200.542 59.144 200.71 59.198 200.806 59.306C200.914 59.402 200.968 59.57 200.968 59.81V67.334C200.968 67.574 200.914 67.748 200.806 67.856C200.698 67.952 200.524 68 200.284 68H200.176C199.708 68 199.474 67.778 199.474 67.334V66.434C199.306 66.818 198.946 67.202 198.394 67.586C197.854 67.958 197.272 68.144 196.648 68.144C194.488 68.144 193.408 66.938 193.408 64.526V59.81C193.408 59.366 193.636 59.144 194.092 59.144ZM204.344 55.382H204.488C204.944 55.382 205.172 55.604 205.172 56.048V60.35C205.412 59.942 205.784 59.606 206.288 59.342C206.792 59.078 207.344 58.946 207.944 58.946C209.06 58.946 209.96 59.324 210.644 60.08C211.34 60.824 211.688 61.964 211.688 63.5C211.688 65.024 211.28 66.182 210.464 66.974C209.648 67.754 208.676 68.144 207.548 68.144C206.432 68.144 205.316 67.934 204.2 67.514C204.02 67.442 203.888 67.352 203.804 67.244C203.72 67.136 203.678 66.974 203.678 66.758V56.048C203.678 55.604 203.9 55.382 204.344 55.382ZM207.782 60.224C207.026 60.224 206.402 60.524 205.91 61.124C205.418 61.712 205.172 62.492 205.172 63.464V66.344C205.844 66.704 206.6 66.884 207.44 66.884C208.28 66.884 208.946 66.602 209.438 66.038C209.942 65.474 210.194 64.628 210.194 63.5C210.194 61.316 209.39 60.224 207.782 60.224ZM214.736 55.382H214.862C215.318 55.382 215.546 55.604 215.546 56.048V67.316C215.546 67.772 215.318 68 214.862 68H214.736C214.484 68 214.304 67.946 214.196 67.838C214.1 67.73 214.052 67.556 214.052 67.316V56.048C214.052 55.808 214.1 55.64 214.196 55.544C214.304 55.436 214.484 55.382 214.736 55.382ZM219.276 59.126H219.384C219.84 59.126 220.068 59.348 220.068 59.792V67.316C220.068 67.772 219.84 68 219.384 68H219.276C218.82 68 218.592 67.772 218.592 67.316V59.792C218.592 59.348 218.82 59.126 219.276 59.126ZM218.34 56.588C218.34 56.312 218.436 56.078 218.628 55.886C218.82 55.682 219.048 55.58 219.312 55.58C219.588 55.58 219.822 55.682 220.014 55.886C220.218 56.078 220.32 56.312 220.32 56.588C220.32 56.852 220.224 57.086 220.032 57.29C219.84 57.482 219.606 57.578 219.33 57.578C219.054 57.578 218.82 57.482 218.628 57.29C218.436 57.098 218.34 56.864 218.34 56.588ZM223.861 59.99C224.305 59.642 224.779 59.384 225.283 59.216C225.787 59.048 226.399 58.964 227.119 58.964C227.839 58.964 228.469 59.126 229.009 59.45C229.561 59.774 229.837 60.122 229.837 60.494C229.837 60.95 229.579 61.208 229.063 61.268C228.943 61.004 228.673 60.764 228.253 60.548C227.833 60.32 227.335 60.206 226.759 60.206C225.955 60.206 225.289 60.494 224.761 61.07C224.233 61.634 223.969 62.462 223.969 63.554C223.969 64.646 224.239 65.48 224.779 66.056C225.319 66.632 225.967 66.92 226.723 66.92C227.923 66.92 228.733 66.53 229.153 65.75C229.381 65.75 229.573 65.822 229.729 65.966C229.885 66.098 229.963 66.272 229.963 66.488C229.963 66.908 229.675 67.292 229.099 67.64C228.523 67.976 227.863 68.144 227.119 68.144C226.387 68.144 225.763 68.06 225.247 67.892C224.743 67.712 224.275 67.448 223.843 67.1C223.411 66.74 223.069 66.26 222.817 65.66C222.565 65.06 222.439 64.364 222.439 63.572C222.439 62.768 222.565 62.06 222.817 61.448C223.081 60.824 223.429 60.338 223.861 59.99ZM232.359 59.126H237.777C238.053 59.126 238.275 59.21 238.443 59.378C238.611 59.534 238.695 59.75 238.695 60.026V60.17C238.695 60.458 238.557 60.746 238.281 61.034C238.005 61.31 237.225 62.138 235.941 63.518C234.657 64.886 233.685 65.918 233.025 66.614V66.686H237.651C238.263 66.686 238.617 66.776 238.713 66.956C238.761 67.052 238.785 67.178 238.785 67.334C238.785 67.778 238.569 68 238.137 68H232.359C231.747 68 231.441 67.7 231.441 67.1V66.92C231.441 66.668 231.597 66.374 231.909 66.038C232.461 65.45 233.277 64.544 234.357 63.32C235.449 62.096 236.271 61.19 236.823 60.602V60.44H232.359C231.915 60.44 231.693 60.224 231.693 59.792C231.693 59.348 231.915 59.126 232.359 59.126ZM241.54 59.126H241.666C242.122 59.126 242.35 59.354 242.35 59.81V60.692C242.578 60.236 242.938 59.834 243.43 59.486C243.922 59.138 244.486 58.964 245.122 58.964C246.094 58.964 246.886 59.258 247.498 59.846C248.122 60.422 248.434 61.34 248.434 62.6V67.316C248.434 67.556 248.38 67.73 248.272 67.838C248.164 67.946 247.99 68 247.75 68H247.606C247.162 68 246.94 67.772 246.94 67.316V62.654C246.94 61.778 246.754 61.154 246.382 60.782C246.01 60.41 245.47 60.224 244.762 60.224C244.054 60.224 243.478 60.512 243.034 61.088C242.59 61.664 242.368 62.426 242.368 63.374V67.316C242.368 67.772 242.134 68 241.666 68H241.54C241.3 68 241.126 67.946 241.018 67.838C240.91 67.73 240.856 67.556 240.856 67.316V59.81C240.856 59.354 241.084 59.126 241.54 59.126ZM250.606 59.144H250.948C251.332 59.144 251.566 59.33 251.65 59.702C252.382 62.582 253.192 64.91 254.08 66.686H254.242C255.25 64.202 256.06 61.874 256.672 59.702C256.78 59.33 257.014 59.144 257.374 59.144H257.662C258.034 59.144 258.22 59.276 258.22 59.54C258.22 59.612 258.202 59.696 258.166 59.792C256.774 64.136 255.262 68.036 253.63 71.492C253.534 71.696 253.432 71.84 253.324 71.924C253.228 72.02 253.072 72.068 252.856 72.068H252.406C252.118 72.068 251.974 71.93 251.974 71.654C251.974 71.57 252.04 71.396 252.172 71.132C253.06 69.416 253.582 68.366 253.738 67.982H253.702C253.486 67.946 253.348 67.898 253.288 67.838C253.228 67.766 253.186 67.724 253.162 67.712C253.138 67.688 253.108 67.646 253.072 67.586C253.036 67.514 253.012 67.472 253 67.46C252.988 67.436 252.958 67.382 252.91 67.298C252.874 67.202 252.85 67.142 252.838 67.118C251.914 65.27 251.002 62.828 250.102 59.792C250.066 59.696 250.048 59.612 250.048 59.54C250.048 59.276 250.234 59.144 250.606 59.144ZM267.093 55.796H274.653C274.977 55.796 275.235 55.892 275.427 56.084C275.619 56.276 275.715 56.528 275.715 56.84V57.218C275.715 57.482 275.337 58.034 274.581 58.874C273.837 59.702 272.667 61.022 271.071 62.834C269.475 64.634 268.371 65.876 267.759 66.56V66.758H274.923C275.163 66.758 275.337 66.812 275.445 66.92C275.553 67.016 275.607 67.184 275.607 67.424C275.607 67.652 275.553 67.808 275.445 67.892C275.349 67.964 275.175 68 274.923 68H267.093C266.769 68 266.517 67.91 266.337 67.73C266.157 67.55 266.067 67.304 266.067 66.992V66.758C266.067 66.398 266.379 65.858 267.003 65.138C267.639 64.406 268.359 63.596 269.163 62.708C271.167 60.476 272.781 58.664 274.005 57.272V57.038H267.093C266.853 57.038 266.685 56.996 266.589 56.912C266.493 56.816 266.445 56.648 266.445 56.408C266.445 56.168 266.493 56.006 266.589 55.922C266.685 55.838 266.853 55.796 267.093 55.796ZM281.518 58.982C284.062 58.982 285.334 60.164 285.334 62.528V66.092C285.334 66.752 285.586 67.172 286.09 67.352C285.91 67.808 285.574 68.036 285.082 68.036C284.722 68.036 284.434 67.91 284.218 67.658C284.014 67.394 283.912 67.052 283.912 66.632C283.156 67.64 282.178 68.144 280.978 68.144C280.006 68.144 279.238 67.898 278.674 67.406C278.122 66.902 277.846 66.23 277.846 65.39C277.846 64.538 278.17 63.848 278.818 63.32C279.478 62.792 280.366 62.528 281.482 62.528C282.154 62.528 282.718 62.6 283.174 62.744C283.546 62.876 283.768 62.96 283.84 62.996V62.204C283.84 61.472 283.654 60.956 283.282 60.656C282.91 60.344 282.346 60.188 281.59 60.188C280.522 60.188 279.694 60.596 279.106 61.412C278.602 61.34 278.35 61.106 278.35 60.71C278.35 60.254 278.662 59.852 279.286 59.504C279.91 59.156 280.654 58.982 281.518 58.982ZM283.84 64.148C283.084 63.812 282.34 63.644 281.608 63.644C280.876 63.644 280.312 63.8 279.916 64.112C279.52 64.424 279.322 64.832 279.322 65.336C279.322 65.828 279.49 66.224 279.826 66.524C280.174 66.812 280.678 66.956 281.338 66.956C282.01 66.956 282.592 66.716 283.084 66.236C283.588 65.756 283.84 65.174 283.84 64.49V64.148ZM288.703 55.382H288.811C289.051 55.382 289.225 55.436 289.333 55.544C289.441 55.652 289.495 55.826 289.495 56.066V62.672C290.203 62.18 290.881 61.622 291.529 60.998C292.189 60.374 292.687 59.906 293.023 59.594C293.371 59.282 293.677 59.126 293.941 59.126H294.445C294.589 59.126 294.703 59.168 294.787 59.252C294.883 59.324 294.931 59.414 294.931 59.522C294.931 59.918 293.599 61.058 290.935 62.942C291.571 63.446 292.303 64.142 293.131 65.03C293.971 65.918 294.631 66.686 295.111 67.334C295.183 67.442 295.219 67.544 295.219 67.64C295.219 67.88 295.069 68 294.769 68H294.337C293.953 68 293.677 67.886 293.509 67.658C292.237 65.99 290.899 64.58 289.495 63.428V67.316C289.495 67.556 289.441 67.73 289.333 67.838C289.225 67.946 289.051 68 288.811 68H288.703C288.463 68 288.289 67.946 288.181 67.838C288.073 67.73 288.019 67.556 288.019 67.316V56.066C288.019 55.826 288.073 55.652 288.181 55.544C288.289 55.436 288.463 55.382 288.703 55.382ZM297.089 63.662C296.945 63.758 296.795 63.806 296.639 63.806C296.483 63.806 296.333 63.722 296.189 63.554C296.045 63.386 295.973 63.212 295.973 63.032C295.973 62.852 296.087 62.684 296.315 62.528L299.807 60.008C299.963 59.9 300.107 59.846 300.239 59.846C300.383 59.846 300.527 59.924 300.671 60.08C300.827 60.236 300.899 60.416 300.887 60.62C300.875 60.812 300.779 60.974 300.599 61.106L297.089 63.662ZM298.277 55.184H298.403C298.859 55.184 299.087 55.406 299.087 55.85V67.118C299.087 67.574 298.859 67.802 298.403 67.802H298.277C298.025 67.802 297.845 67.748 297.737 67.64C297.641 67.532 297.593 67.358 297.593 67.118V55.85C297.593 55.61 297.641 55.442 297.737 55.346C297.845 55.238 298.025 55.184 298.277 55.184ZM305.178 58.982C307.722 58.982 308.994 60.164 308.994 62.528V66.092C308.994 66.752 309.246 67.172 309.75 67.352C309.57 67.808 309.234 68.036 308.742 68.036C308.382 68.036 308.094 67.91 307.878 67.658C307.674 67.394 307.572 67.052 307.572 66.632C306.816 67.64 305.838 68.144 304.638 68.144C303.666 68.144 302.898 67.898 302.334 67.406C301.782 66.902 301.506 66.23 301.506 65.39C301.506 64.538 301.83 63.848 302.478 63.32C303.138 62.792 304.026 62.528 305.142 62.528C305.814 62.528 306.378 62.6 306.834 62.744C307.206 62.876 307.428 62.96 307.5 62.996V62.204C307.5 61.472 307.314 60.956 306.942 60.656C306.57 60.344 306.006 60.188 305.25 60.188C304.182 60.188 303.354 60.596 302.766 61.412C302.262 61.34 302.01 61.106 302.01 60.71C302.01 60.254 302.322 59.852 302.946 59.504C303.57 59.156 304.314 58.982 305.178 58.982ZM307.5 64.148C306.744 63.812 306 63.644 305.268 63.644C304.536 63.644 303.972 63.8 303.576 64.112C303.18 64.424 302.982 64.832 302.982 65.336C302.982 65.828 303.15 66.224 303.486 66.524C303.834 66.812 304.338 66.956 304.998 66.956C305.67 66.956 306.252 66.716 306.744 66.236C307.248 65.756 307.5 65.174 307.5 64.49V64.148ZM318.393 55.022H318.537C318.993 55.022 319.221 55.238 319.221 55.67V67.352C319.221 67.784 318.993 68 318.537 68H318.393C317.937 68 317.709 67.796 317.709 67.388V66.506C317.445 66.974 317.067 67.364 316.575 67.676C316.083 67.976 315.525 68.126 314.901 68.126C313.833 68.126 312.951 67.76 312.255 67.028C311.559 66.296 311.211 65.174 311.211 63.662C311.211 62.138 311.595 60.974 312.363 60.17C313.131 59.354 314.109 58.946 315.297 58.946C316.233 58.946 317.037 59.222 317.709 59.774V55.67C317.709 55.238 317.937 55.022 318.393 55.022ZM317.709 61.25C317.073 60.59 316.311 60.26 315.423 60.26C314.535 60.26 313.857 60.548 313.389 61.124C312.921 61.688 312.687 62.54 312.687 63.68C312.687 64.82 312.927 65.642 313.407 66.146C313.887 66.65 314.523 66.902 315.315 66.902C316.119 66.902 316.719 66.602 317.115 66.002C317.511 65.402 317.709 64.658 317.709 63.77V61.25ZM331.095 56.012C331.779 55.76 332.493 55.634 333.237 55.634C333.981 55.634 334.689 55.76 335.361 56.012C336.033 56.252 336.651 56.612 337.215 57.092C337.791 57.572 338.247 58.232 338.583 59.072C338.931 59.9 339.105 60.848 339.105 61.916C339.105 62.972 338.931 63.914 338.583 64.742C338.247 65.558 337.791 66.206 337.215 66.686C336.651 67.166 336.033 67.532 335.361 67.784C334.689 68.024 333.981 68.144 333.237 68.144C332.493 68.144 331.779 68.024 331.095 67.784C330.423 67.532 329.799 67.166 329.223 66.686C328.659 66.206 328.209 65.558 327.873 64.742C327.537 63.914 327.369 62.972 327.369 61.916C327.369 60.848 327.537 59.9 327.873 59.072C328.209 58.232 328.659 57.572 329.223 57.092C329.799 56.612 330.423 56.252 331.095 56.012ZM336.261 58.28C335.421 57.44 334.413 57.02 333.237 57.02C332.061 57.02 331.047 57.44 330.195 58.28C329.355 59.12 328.935 60.326 328.935 61.898C328.935 63.458 329.355 64.658 330.195 65.498C331.047 66.338 332.061 66.758 333.237 66.758C334.413 66.758 335.421 66.338 336.261 65.498C337.113 64.658 337.539 63.458 337.539 61.898C337.539 60.326 337.113 59.12 336.261 58.28ZM342.104 59.126H342.23C342.686 59.126 342.914 59.336 342.914 59.756V60.458C343.166 60.038 343.544 59.684 344.048 59.396C344.552 59.108 345.098 58.964 345.686 58.964C346.802 58.964 347.702 59.342 348.386 60.098C349.082 60.842 349.43 61.982 349.43 63.518C349.43 65.042 349.022 66.194 348.206 66.974C347.402 67.754 346.412 68.144 345.236 68.144C344.432 68.144 343.658 67.94 342.914 67.532V71.402C342.914 71.846 342.686 72.068 342.23 72.068H342.104C341.648 72.068 341.42 71.846 341.42 71.402V59.792C341.42 59.348 341.648 59.126 342.104 59.126ZM347.936 63.5C347.936 62.36 347.696 61.532 347.216 61.016C346.736 60.488 346.088 60.224 345.272 60.224C344.456 60.224 343.856 60.584 343.472 61.304C343.1 62.024 342.914 62.96 342.914 64.112V66.362C343.034 66.446 343.328 66.56 343.796 66.704C344.276 66.836 344.756 66.902 345.236 66.902C346.04 66.902 346.688 66.62 347.18 66.056C347.684 65.492 347.936 64.64 347.936 63.5ZM352.694 59.126H352.802C353.258 59.126 353.486 59.348 353.486 59.792V67.316C353.486 67.772 353.258 68 352.802 68H352.694C352.238 68 352.01 67.772 352.01 67.316V59.792C352.01 59.348 352.238 59.126 352.694 59.126ZM351.758 56.588C351.758 56.312 351.854 56.078 352.046 55.886C352.238 55.682 352.466 55.58 352.73 55.58C353.006 55.58 353.24 55.682 353.432 55.886C353.636 56.078 353.738 56.312 353.738 56.588C353.738 56.852 353.642 57.086 353.45 57.29C353.258 57.482 353.024 57.578 352.748 57.578C352.472 57.578 352.238 57.482 352.046 57.29C351.854 57.098 351.758 56.864 351.758 56.588ZM355.857 63.59C355.857 62.09 356.277 60.944 357.117 60.152C357.957 59.36 358.923 58.964 360.015 58.964C361.107 58.964 361.971 59.246 362.607 59.81C363.243 60.362 363.561 61.052 363.561 61.88C363.561 62.708 363.231 63.356 362.571 63.824C361.923 64.28 361.083 64.508 360.051 64.508C359.019 64.508 358.089 64.346 357.261 64.022C357.261 64.898 357.561 65.606 358.161 66.146C358.761 66.674 359.493 66.938 360.357 66.938C361.701 66.938 362.541 66.524 362.877 65.696C363.081 65.696 363.255 65.756 363.399 65.876C363.543 65.984 363.615 66.146 363.615 66.362C363.615 66.782 363.303 67.184 362.679 67.568C362.067 67.952 361.287 68.144 360.339 68.144C359.067 68.144 357.999 67.76 357.135 66.992C356.283 66.224 355.857 65.09 355.857 63.59ZM362.193 61.826C362.193 61.358 361.989 60.962 361.581 60.638C361.185 60.314 360.633 60.152 359.925 60.152C359.229 60.152 358.617 60.434 358.089 60.998C357.561 61.562 357.291 62.198 357.279 62.906C358.143 63.194 359.001 63.338 359.853 63.338C361.413 63.338 362.193 62.834 362.193 61.826ZM366.398 55.382H366.506C366.746 55.382 366.92 55.436 367.028 55.544C367.136 55.652 367.19 55.826 367.19 56.066V62.672C367.898 62.18 368.576 61.622 369.224 60.998C369.884 60.374 370.382 59.906 370.718 59.594C371.066 59.282 371.372 59.126 371.636 59.126H372.14C372.284 59.126 372.398 59.168 372.482 59.252C372.578 59.324 372.626 59.414 372.626 59.522C372.626 59.918 371.294 61.058 368.63 62.942C369.266 63.446 369.998 64.142 370.826 65.03C371.666 65.918 372.326 66.686 372.806 67.334C372.878 67.442 372.914 67.544 372.914 67.64C372.914 67.88 372.764 68 372.464 68H372.032C371.648 68 371.372 67.886 371.204 67.658C369.932 65.99 368.594 64.58 367.19 63.428V67.316C367.19 67.556 367.136 67.73 367.028 67.838C366.92 67.946 366.746 68 366.506 68H366.398C366.158 68 365.984 67.946 365.876 67.838C365.768 67.73 365.714 67.556 365.714 67.316V56.066C365.714 55.826 365.768 55.652 365.876 55.544C365.984 55.436 366.158 55.382 366.398 55.382ZM375.756 59.126H375.864C376.32 59.126 376.548 59.348 376.548 59.792V67.316C376.548 67.772 376.32 68 375.864 68H375.756C375.3 68 375.072 67.772 375.072 67.316V59.792C375.072 59.348 375.3 59.126 375.756 59.126ZM374.82 56.588C374.82 56.312 374.916 56.078 375.108 55.886C375.3 55.682 375.528 55.58 375.792 55.58C376.068 55.58 376.302 55.682 376.494 55.886C376.698 56.078 376.8 56.312 376.8 56.588C376.8 56.852 376.704 57.086 376.512 57.29C376.32 57.482 376.086 57.578 375.81 57.578C375.534 57.578 375.3 57.482 375.108 57.29C374.916 57.098 374.82 56.864 374.82 56.588ZM386.396 55.796H393.956C394.28 55.796 394.538 55.892 394.73 56.084C394.922 56.276 395.018 56.528 395.018 56.84V57.218C395.018 57.482 394.64 58.034 393.884 58.874C393.14 59.702 391.97 61.022 390.374 62.834C388.778 64.634 387.674 65.876 387.062 66.56V66.758H394.226C394.466 66.758 394.64 66.812 394.748 66.92C394.856 67.016 394.91 67.184 394.91 67.424C394.91 67.652 394.856 67.808 394.748 67.892C394.652 67.964 394.478 68 394.226 68H386.396C386.072 68 385.82 67.91 385.64 67.73C385.46 67.55 385.37 67.304 385.37 66.992V66.758C385.37 66.398 385.682 65.858 386.306 65.138C386.942 64.406 387.662 63.596 388.466 62.708C390.47 60.476 392.084 58.664 393.308 57.272V57.038H386.396C386.156 57.038 385.988 56.996 385.892 56.912C385.796 56.816 385.748 56.648 385.748 56.408C385.748 56.168 385.796 56.006 385.892 55.922C385.988 55.838 386.156 55.796 386.396 55.796ZM404.42 55.022H404.564C405.02 55.022 405.248 55.238 405.248 55.67V67.352C405.248 67.784 405.02 68 404.564 68H404.42C403.964 68 403.736 67.796 403.736 67.388V66.506C403.472 66.974 403.094 67.364 402.602 67.676C402.11 67.976 401.552 68.126 400.928 68.126C399.86 68.126 398.978 67.76 398.282 67.028C397.586 66.296 397.238 65.174 397.238 63.662C397.238 62.138 397.622 60.974 398.39 60.17C399.158 59.354 400.136 58.946 401.324 58.946C402.26 58.946 403.064 59.222 403.736 59.774V55.67C403.736 55.238 403.964 55.022 404.42 55.022ZM403.736 61.25C403.1 60.59 402.338 60.26 401.45 60.26C400.562 60.26 399.884 60.548 399.416 61.124C398.948 61.688 398.714 62.54 398.714 63.68C398.714 64.82 398.954 65.642 399.434 66.146C399.914 66.65 400.55 66.902 401.342 66.902C402.146 66.902 402.746 66.602 403.142 66.002C403.538 65.402 403.736 64.658 403.736 63.77V61.25ZM408.62 59.126H408.728C409.184 59.126 409.412 59.348 409.412 59.792V60.764C409.616 60.308 409.94 59.9 410.384 59.54C410.84 59.18 411.326 59 411.842 59C412.358 59 412.748 59.102 413.012 59.306C413.288 59.51 413.426 59.762 413.426 60.062C413.426 60.35 413.3 60.578 413.048 60.746C412.676 60.434 412.28 60.278 411.86 60.278C411.116 60.278 410.528 60.584 410.096 61.196C409.664 61.796 409.448 62.552 409.448 63.464V67.316C409.448 67.556 409.394 67.73 409.286 67.838C409.178 67.946 409.004 68 408.764 68H408.62C408.38 68 408.206 67.946 408.098 67.838C407.99 67.73 407.936 67.556 407.936 67.316V59.792C407.936 59.348 408.164 59.126 408.62 59.126ZM415.793 60.17C416.645 59.366 417.689 58.964 418.925 58.964C420.161 58.964 421.205 59.366 422.057 60.17C422.909 60.974 423.335 62.108 423.335 63.572C423.335 65.036 422.909 66.164 422.057 66.956C421.205 67.748 420.161 68.144 418.925 68.144C417.689 68.144 416.645 67.748 415.793 66.956C414.941 66.164 414.515 65.036 414.515 63.572C414.515 62.108 414.941 60.974 415.793 60.17ZM420.995 61.088C420.467 60.5 419.777 60.206 418.925 60.206C418.073 60.206 417.377 60.5 416.837 61.088C416.309 61.664 416.045 62.492 416.045 63.572C416.045 64.64 416.309 65.468 416.837 66.056C417.377 66.632 418.073 66.92 418.925 66.92C419.777 66.92 420.467 66.632 420.995 66.056C421.535 65.468 421.805 64.64 421.805 63.572C421.805 62.492 421.535 61.664 420.995 61.088ZM425.229 59.144H425.517C425.865 59.144 426.081 59.33 426.165 59.702C426.969 62.954 427.593 65.282 428.037 66.686H428.253C428.349 66.278 428.613 65.246 429.045 63.59C429.477 61.922 429.801 60.626 430.017 59.702C430.101 59.33 430.335 59.144 430.719 59.144H430.989C431.373 59.144 431.607 59.33 431.691 59.702C431.895 60.59 432.207 61.826 432.627 63.41C433.059 64.994 433.347 66.086 433.491 66.686H433.707C434.115 65.402 434.505 63.986 434.877 62.438C435.249 60.89 435.471 59.978 435.543 59.702C435.627 59.33 435.843 59.144 436.191 59.144H436.479C436.875 59.144 437.073 59.276 437.073 59.54C437.073 59.588 437.037 59.738 436.965 59.99C436.905 60.242 436.767 60.782 436.551 61.61C436.347 62.438 436.179 63.092 436.047 63.572C435.675 64.904 435.297 66.086 434.913 67.118C434.685 67.706 434.271 68 433.671 68H433.509C433.173 68 432.927 67.934 432.771 67.802C432.615 67.658 432.489 67.43 432.393 67.118C431.685 64.742 431.187 62.684 430.899 60.944H430.791C430.455 62.96 429.975 65.018 429.351 67.118C429.255 67.43 429.129 67.658 428.973 67.802C428.817 67.934 428.571 68 428.235 68H428.073C427.473 68 427.065 67.718 426.849 67.154C426.633 66.59 426.411 65.96 426.183 65.264C425.967 64.556 425.805 64.004 425.697 63.608C425.589 63.212 425.403 62.528 425.139 61.556C424.803 60.272 424.635 59.6 424.635 59.54C424.635 59.276 424.833 59.144 425.229 59.144ZM439.646 60.17C440.498 59.366 441.542 58.964 442.778 58.964C444.014 58.964 445.058 59.366 445.91 60.17C446.762 60.974 447.188 62.108 447.188 63.572C447.188 65.036 446.762 66.164 445.91 66.956C445.058 67.748 444.014 68.144 442.778 68.144C441.542 68.144 440.498 67.748 439.646 66.956C438.794 66.164 438.368 65.036 438.368 63.572C438.368 62.108 438.794 60.974 439.646 60.17ZM444.848 61.088C444.32 60.5 443.63 60.206 442.778 60.206C441.926 60.206 441.23 60.5 440.69 61.088C440.162 61.664 439.898 62.492 439.898 63.572C439.898 64.64 440.162 65.468 440.69 66.056C441.23 66.632 441.926 66.92 442.778 66.92C443.63 66.92 444.32 66.632 444.848 66.056C445.388 65.468 445.658 64.64 445.658 63.572C445.658 62.492 445.388 61.664 444.848 61.088ZM450.72 56.732H450.846C451.302 56.732 451.53 56.954 451.53 57.398V59.18H454.014C454.482 59.18 454.716 59.384 454.716 59.792C454.716 60.2 454.482 60.404 454.014 60.404H451.53V64.94C451.53 65.696 451.674 66.23 451.962 66.542C452.262 66.842 452.694 66.992 453.258 66.992C453.834 66.992 454.26 66.854 454.536 66.578C454.836 66.674 454.986 66.866 454.986 67.154C454.986 67.442 454.788 67.682 454.392 67.874C453.996 68.054 453.522 68.144 452.97 68.144C451.014 68.144 450.036 67.076 450.036 64.94V60.404H449.154C448.89 60.404 448.698 60.362 448.578 60.278C448.458 60.194 448.398 60.032 448.398 59.792C448.398 59.384 448.65 59.18 449.154 59.18H450.036V57.398C450.036 56.954 450.264 56.732 450.72 56.732ZM457.171 59.126H457.297C457.753 59.126 457.981 59.354 457.981 59.81V60.692C458.209 60.236 458.569 59.834 459.061 59.486C459.553 59.138 460.117 58.964 460.753 58.964C461.725 58.964 462.517 59.258 463.129 59.846C463.753 60.422 464.065 61.34 464.065 62.6V67.316C464.065 67.556 464.011 67.73 463.903 67.838C463.795 67.946 463.621 68 463.381 68H463.237C462.793 68 462.571 67.772 462.571 67.316V62.654C462.571 61.778 462.385 61.154 462.013 60.782C461.641 60.41 461.101 60.224 460.393 60.224C459.685 60.224 459.109 60.512 458.665 61.088C458.221 61.664 457.999 62.426 457.999 63.374V67.316C457.999 67.772 457.765 68 457.297 68H457.171C456.931 68 456.757 67.946 456.649 67.838C456.541 67.73 456.487 67.556 456.487 67.316V59.81C456.487 59.354 456.715 59.126 457.171 59.126ZM465.948 63.59C465.948 62.09 466.368 60.944 467.208 60.152C468.048 59.36 469.014 58.964 470.106 58.964C471.198 58.964 472.062 59.246 472.698 59.81C473.334 60.362 473.652 61.052 473.652 61.88C473.652 62.708 473.322 63.356 472.662 63.824C472.014 64.28 471.174 64.508 470.142 64.508C469.11 64.508 468.18 64.346 467.352 64.022C467.352 64.898 467.652 65.606 468.252 66.146C468.852 66.674 469.584 66.938 470.448 66.938C471.792 66.938 472.632 66.524 472.968 65.696C473.172 65.696 473.346 65.756 473.49 65.876C473.634 65.984 473.706 66.146 473.706 66.362C473.706 66.782 473.394 67.184 472.77 67.568C472.158 67.952 471.378 68.144 470.43 68.144C469.158 68.144 468.09 67.76 467.226 66.992C466.374 66.224 465.948 65.09 465.948 63.59ZM472.284 61.826C472.284 61.358 472.08 60.962 471.672 60.638C471.276 60.314 470.724 60.152 470.016 60.152C469.32 60.152 468.708 60.434 468.18 60.998C467.652 61.562 467.382 62.198 467.37 62.906C468.234 63.194 469.092 63.338 469.944 63.338C471.504 63.338 472.284 62.834 472.284 61.826ZM477.12 59.144H477.228C477.684 59.144 477.912 59.366 477.912 59.81V67.604C477.912 68.996 477.696 70.034 477.264 70.718C476.844 71.414 476.112 71.762 475.068 71.762C474.468 71.762 474.024 71.666 473.736 71.474C473.448 71.294 473.304 71.042 473.304 70.718C473.304 70.394 473.454 70.136 473.754 69.944C473.826 70.052 473.994 70.16 474.258 70.268C474.522 70.388 474.798 70.448 475.086 70.448C475.626 70.448 475.98 70.22 476.148 69.764C476.328 69.32 476.418 68.6 476.418 67.604V59.81C476.418 59.366 476.652 59.144 477.12 59.144ZM476.184 56.606C476.184 56.33 476.28 56.096 476.472 55.904C476.664 55.7 476.892 55.598 477.156 55.598C477.432 55.598 477.666 55.7 477.858 55.904C478.05 56.096 478.146 56.33 478.146 56.606C478.146 56.87 478.05 57.098 477.858 57.29C477.666 57.482 477.432 57.578 477.156 57.578C476.892 57.578 476.664 57.482 476.472 57.29C476.28 57.098 476.184 56.87 476.184 56.606Z" fill="#2169D6"/>
<path d="M204.485 88.22C206.57 88.22 208.406 88.5487 209.993 89.206C211.602 89.8407 212.996 90.7813 214.175 92.028L211.353 95.802C210.378 94.782 209.324 94.0227 208.191 93.524C207.08 93.0027 205.811 92.742 204.383 92.742C203.136 92.742 202.241 92.946 201.697 93.354C201.153 93.762 200.881 94.2607 200.881 94.85C200.881 95.326 201.096 95.734 201.527 96.074C201.98 96.3913 202.706 96.6633 203.703 96.89L207.477 97.74C209.721 98.2613 211.364 99.0207 212.407 100.018C213.45 101.015 213.971 102.341 213.971 103.996C213.971 105.583 213.563 106.931 212.747 108.042C211.931 109.13 210.809 109.957 209.381 110.524C207.953 111.068 206.321 111.34 204.485 111.34C202.218 111.34 200.144 110.977 198.263 110.252C196.382 109.504 194.886 108.529 193.775 107.328L196.597 103.418C197.436 104.393 198.569 105.209 199.997 105.866C201.425 106.501 202.898 106.818 204.417 106.818C206.774 106.818 207.953 106.127 207.953 104.744C207.953 104.268 207.772 103.871 207.409 103.554C207.069 103.214 206.434 102.931 205.505 102.704L201.357 101.786C200.088 101.514 198.954 101.129 197.957 100.63C196.982 100.131 196.212 99.474 195.645 98.658C195.078 97.8193 194.795 96.7767 194.795 95.53C194.795 94.1247 195.18 92.878 195.951 91.79C196.722 90.6793 197.832 89.8067 199.283 89.172C200.734 88.5373 202.468 88.22 204.485 88.22ZM236.565 88.56V101.854C236.565 108.178 233.222 111.34 226.535 111.34C223.248 111.34 220.755 110.558 219.055 108.994C217.355 107.407 216.505 105.027 216.505 101.854V88.56H222.387V101.956C222.387 105.152 223.77 106.75 226.535 106.75C229.323 106.75 230.717 105.152 230.717 101.956V88.56H236.565ZM250.708 88.56C253.428 88.56 255.547 89.2173 257.066 90.532C258.607 91.824 259.378 93.66 259.378 96.04C259.378 98.42 258.607 100.267 257.066 101.582C255.547 102.874 253.428 103.52 250.708 103.52H246.254V111H240.406V88.56H250.708ZM249.79 99.134C252.26 99.134 253.496 98.1027 253.496 96.04C253.496 93.9773 252.26 92.946 249.79 92.946H246.254V99.134H249.79ZM262.437 111V88.56H279.913V93.082H268.285V97.638H277.533V101.888H268.285V106.478H280.355V111H262.437ZM293.916 88.56C296.59 88.56 298.664 89.1833 300.138 90.43C301.634 91.6767 302.382 93.354 302.382 95.462C302.382 97.1393 301.985 98.522 301.192 99.61C300.421 100.675 299.31 101.457 297.86 101.956L303.708 111H297.248L292.454 102.806H288.952V111H283.206V88.56H293.916ZM293.1 98.658C294.233 98.658 295.083 98.4313 295.65 97.978C296.216 97.5247 296.5 96.7993 296.5 95.802C296.5 93.9207 295.366 92.98 293.1 92.98H288.952V98.658H293.1ZM305.967 111V88.56H316.881C319.647 88.56 321.687 89.0813 323.001 90.124C324.316 91.1667 324.973 92.6627 324.973 94.612C324.973 95.8813 324.599 96.9807 323.851 97.91C323.103 98.8393 321.959 99.4173 320.417 99.644V99.678C322.14 99.9047 323.421 100.505 324.259 101.48C325.121 102.432 325.551 103.588 325.551 104.948C325.551 106.875 324.86 108.371 323.477 109.436C322.117 110.479 320.089 111 317.391 111H305.967ZM311.611 97.74H315.861C317.947 97.74 318.989 96.924 318.989 95.292C318.989 93.66 317.947 92.844 315.861 92.844H311.611V97.74ZM311.611 106.886H316.405C318.513 106.886 319.567 106.047 319.567 104.37C319.567 102.738 318.513 101.922 316.405 101.922H311.611V106.886ZM341.245 99.542V104.268H328.801V99.542H341.245ZM371.788 88.56V111H366.62V100.698L366.79 93.796H366.722L361.18 111H356.454L350.912 93.796H350.844L351.014 100.698V111H345.812V88.56H354.142L357.678 99.984L358.936 104.744H359.004L360.296 100.018L363.798 88.56H371.788ZM376.078 111V88.56H393.554V93.082H381.926V97.638H391.174V101.888H381.926V106.478H393.996V111H376.078ZM406.367 88.56C409.88 88.56 412.566 89.5347 414.425 91.484C416.306 93.4333 417.247 96.1987 417.247 99.78C417.247 103.361 416.306 106.127 414.425 108.076C412.566 110.025 409.88 111 406.367 111H396.847V88.56H406.367ZM405.789 106.58C407.693 106.58 409.075 106.013 409.937 104.88C410.821 103.724 411.263 102.024 411.263 99.78C411.263 97.536 410.821 95.8473 409.937 94.714C409.075 93.558 407.693 92.98 405.789 92.98H402.695V106.58H405.789Z" fill="#1C4ECD"/>
<path d="M209.993 89.206L209.61 90.1299L209.618 90.1331L209.626 90.1363L209.993 89.206ZM214.175 92.028L214.976 92.6268L215.48 91.9527L214.902 91.341L214.175 92.028ZM211.353 95.802L210.63 96.4929L211.446 97.3471L212.154 96.4008L211.353 95.802ZM208.191 93.524L207.766 94.4292L207.777 94.4344L207.788 94.4393L208.191 93.524ZM201.697 93.354L201.097 92.554V92.554L201.697 93.354ZM201.527 96.074L200.907 96.8589L200.93 96.8767L200.953 96.8932L201.527 96.074ZM203.703 96.89L203.481 97.8651L203.483 97.8656L203.703 96.89ZM207.477 97.74L207.703 96.7659L207.697 96.7644L207.477 97.74ZM212.747 108.042L213.547 108.642L213.553 108.634L212.747 108.042ZM209.381 110.524L209.737 111.459L209.75 111.453L209.381 110.524ZM198.263 110.252L197.893 111.181L197.903 111.185L198.263 110.252ZM193.775 107.328L192.964 106.743L192.485 107.406L193.041 108.007L193.775 107.328ZM196.597 103.418L197.355 102.766L196.528 101.805L195.786 102.833L196.597 103.418ZM199.997 105.866L199.579 106.774L199.591 106.78L199.997 105.866ZM207.409 103.554L206.702 104.261L206.725 104.285L206.75 104.307L207.409 103.554ZM205.505 102.704L205.742 101.732L205.731 101.73L205.721 101.728L205.505 102.704ZM201.357 101.786L201.573 100.81L201.566 100.808L201.357 101.786ZM197.957 100.63L197.501 101.52L197.51 101.524L197.957 100.63ZM195.645 98.658L194.816 99.2179L194.824 99.2284L195.645 98.658ZM195.951 91.79L196.767 92.368L196.772 92.3601L195.951 91.79ZM199.283 89.172L198.882 88.2558L199.283 89.172ZM204.485 89.22C206.466 89.22 208.168 89.5323 209.61 90.1299L210.376 88.2821C208.645 87.565 206.674 87.22 204.485 87.22V89.22ZM209.626 90.1363C211.1 90.7177 212.371 91.5757 213.448 92.715L214.902 91.341C213.621 89.9869 212.104 88.9637 210.36 88.2757L209.626 90.1363ZM213.374 91.4292L210.552 95.2032L212.154 96.4008L214.976 92.6268L213.374 91.4292ZM212.076 95.1111C211.023 94.0092 209.863 93.1672 208.594 92.6087L207.788 94.4393C208.785 94.8781 209.734 95.5548 210.63 96.4929L212.076 95.1111ZM208.616 92.6188C207.352 92.0256 205.934 91.742 204.383 91.742V93.742C205.688 93.742 206.808 93.9797 207.766 94.4292L208.616 92.6188ZM204.383 91.742C203.077 91.742 201.908 91.946 201.097 92.554L202.297 94.154C202.574 93.946 203.195 93.742 204.383 93.742V91.742ZM201.097 92.554C200.345 93.1178 199.881 93.8946 199.881 94.85H201.881C201.881 94.6267 201.961 94.4062 202.297 94.154L201.097 92.554ZM199.881 94.85C199.881 95.6812 200.278 96.3619 200.907 96.8589L202.147 95.2891C201.915 95.1061 201.881 94.9708 201.881 94.85H199.881ZM200.953 96.8932C201.568 97.3235 202.446 97.6299 203.481 97.8651L203.925 95.9149C202.965 95.6967 202.392 95.4592 202.1 95.2548L200.953 96.8932ZM203.483 97.8656L207.257 98.7156L207.697 96.7644L203.923 95.9144L203.483 97.8656ZM207.251 98.7141C209.414 99.2167 210.858 99.9205 211.716 100.741L213.098 99.2954C211.87 98.1209 210.028 97.306 207.703 96.7659L207.251 98.7141ZM211.716 100.741C212.532 101.521 212.971 102.57 212.971 103.996H214.971C214.971 102.112 214.368 100.51 213.098 99.2954L211.716 100.741ZM212.971 103.996C212.971 105.403 212.612 106.536 211.941 107.45L213.553 108.634C214.513 107.327 214.971 105.762 214.971 103.996H212.971ZM211.947 107.442C211.255 108.364 210.291 109.087 209.012 109.595L209.75 111.453C211.326 110.828 212.606 109.896 213.547 108.642L211.947 107.442ZM209.025 109.59C207.731 110.082 206.223 110.34 204.485 110.34V112.34C206.419 112.34 208.175 112.054 209.737 111.458L209.025 109.59ZM204.485 110.34C202.326 110.34 200.376 109.995 198.623 109.319L197.903 111.185C199.913 111.96 202.11 112.34 204.485 112.34V110.34ZM198.632 109.323C196.858 108.617 195.497 107.718 194.509 106.649L193.041 108.007C194.274 109.341 195.906 110.391 197.893 111.181L198.632 109.323ZM194.586 107.913L197.408 104.003L195.786 102.833L192.964 106.743L194.586 107.913ZM195.839 104.07C196.79 105.175 198.049 106.07 199.579 106.774L200.415 104.958C199.089 104.347 198.082 103.61 197.355 102.766L195.839 104.07ZM199.591 106.78C201.143 107.47 202.754 107.818 204.417 107.818V105.818C203.042 105.818 201.707 105.532 200.403 104.952L199.591 106.78ZM204.417 107.818C205.661 107.818 206.758 107.641 207.575 107.162C208.475 106.634 208.953 105.785 208.953 104.744H206.953C206.953 105.086 206.842 105.273 206.563 105.437C206.202 105.649 205.531 105.818 204.417 105.818V107.818ZM208.953 104.744C208.953 103.976 208.644 103.306 208.067 102.801L206.75 104.307C206.899 104.437 206.953 104.56 206.953 104.744H208.953ZM208.116 102.847C207.571 102.302 206.704 101.967 205.742 101.732L205.268 103.676C206.164 103.894 206.567 104.126 206.702 104.261L208.116 102.847ZM205.721 101.728L201.573 100.81L201.141 102.762L205.289 103.68L205.721 101.728ZM201.566 100.808C200.366 100.551 199.315 100.191 198.404 99.7356L197.51 101.524C198.594 102.066 199.809 102.477 201.147 102.764L201.566 100.808ZM198.412 99.7398C197.569 99.3082 196.93 98.7551 196.466 98.0876L194.824 99.2284C195.493 100.193 196.396 100.954 197.501 101.52L198.412 99.7398ZM196.473 98.0981C196.042 97.4596 195.795 96.6237 195.795 95.53H193.795C193.795 96.9296 194.114 98.1791 194.816 99.2179L196.473 98.0981ZM195.795 95.53C195.795 94.3199 196.123 93.2776 196.767 92.368L195.135 91.212C194.238 92.4784 193.795 93.9295 193.795 95.53H195.795ZM196.772 92.3601C197.421 91.4259 198.373 90.6615 199.684 90.0882L198.882 88.2558C197.291 88.9518 196.022 89.9328 195.129 91.2199L196.772 92.3601ZM199.684 90.0882C200.978 89.5217 202.569 89.22 204.485 89.22V87.22C202.366 87.22 200.489 87.5529 198.882 88.2558L199.684 90.0882ZM236.565 88.56H237.565V87.56H236.565V88.56ZM219.055 108.994L218.373 109.725L218.378 109.73L219.055 108.994ZM216.505 88.56V87.56H215.505V88.56H216.505ZM222.387 88.56H223.387V87.56H222.387V88.56ZM230.717 88.56V87.56H229.717V88.56H230.717ZM235.565 88.56V101.854H237.565V88.56H235.565ZM235.565 101.854C235.565 104.847 234.776 106.912 233.37 108.242C231.954 109.582 229.738 110.34 226.535 110.34V112.34C230.019 112.34 232.818 111.517 234.745 109.695C236.682 107.863 237.565 105.185 237.565 101.854H235.565ZM226.535 110.34C223.393 110.34 221.182 109.592 219.732 108.258L218.378 109.73C220.328 111.524 223.103 112.34 226.535 112.34V110.34ZM219.737 108.263C218.305 106.927 217.505 104.855 217.505 101.854H215.505C215.505 105.2 216.404 107.888 218.373 109.725L219.737 108.263ZM217.505 101.854V88.56H215.505V101.854H217.505ZM216.505 89.56H222.387V87.56H216.505V89.56ZM221.387 88.56V101.956H223.387V88.56H221.387ZM221.387 101.956C221.387 103.676 221.756 105.152 222.668 106.206C223.604 107.287 224.957 107.75 226.535 107.75V105.75C225.347 105.75 224.627 105.414 224.18 104.897C223.709 104.353 223.387 103.432 223.387 101.956H221.387ZM226.535 107.75C228.121 107.75 229.483 107.289 230.425 106.209C231.345 105.155 231.717 103.677 231.717 101.956H229.717C229.717 103.431 229.392 104.35 228.918 104.894C228.466 105.412 227.737 105.75 226.535 105.75V107.75ZM231.717 101.956V88.56H229.717V101.956H231.717ZM230.717 89.56H236.565V87.56H230.717V89.56ZM257.066 90.532L256.411 91.2881L256.417 91.2933L256.423 91.2984L257.066 90.532ZM257.066 101.582L257.714 102.344L257.715 102.343L257.066 101.582ZM246.254 103.52V102.52H245.254V103.52H246.254ZM246.254 111V112H247.254V111H246.254ZM240.406 111H239.406V112H240.406V111ZM240.406 88.56V87.56H239.406V88.56H240.406ZM246.254 92.946V91.946H245.254V92.946H246.254ZM246.254 99.134H245.254V100.134H246.254V99.134ZM250.708 89.56C253.273 89.56 255.13 90.1789 256.411 91.2881L257.72 89.7759C255.964 88.2557 253.582 87.56 250.708 87.56V89.56ZM256.423 91.2984C257.696 92.3649 258.378 93.8957 258.378 96.04H260.378C260.378 93.4243 259.518 91.2831 257.708 89.7656L256.423 91.2984ZM258.378 96.04C258.378 98.1838 257.696 99.7304 256.417 100.821L257.715 102.343C259.518 100.804 260.378 98.6562 260.378 96.04H258.378ZM256.418 100.82C255.136 101.91 253.277 102.52 250.708 102.52V104.52C253.579 104.52 255.958 103.838 257.714 102.344L256.418 100.82ZM250.708 102.52H246.254V104.52H250.708V102.52ZM245.254 103.52V111H247.254V103.52H245.254ZM246.254 110H240.406V112H246.254V110ZM241.406 111V88.56H239.406V111H241.406ZM240.406 89.56H250.708V87.56H240.406V89.56ZM249.79 100.134C251.14 100.134 252.338 99.856 253.21 99.1281C254.116 98.3714 254.496 97.2777 254.496 96.04H252.496C252.496 96.865 252.257 97.3182 251.928 97.5929C251.565 97.8963 250.91 98.134 249.79 98.134V100.134ZM254.496 96.04C254.496 94.8023 254.116 93.7086 253.21 92.9519C252.338 92.224 251.14 91.946 249.79 91.946V93.946C250.91 93.946 251.565 94.1837 251.928 94.4871C252.257 94.7618 252.496 95.215 252.496 96.04H254.496ZM249.79 91.946H246.254V93.946H249.79V91.946ZM245.254 92.946V99.134H247.254V92.946H245.254ZM246.254 100.134H249.79V98.134H246.254V100.134ZM262.437 111H261.437V112H262.437V111ZM262.437 88.56V87.56H261.437V88.56H262.437ZM279.913 88.56H280.913V87.56H279.913V88.56ZM279.913 93.082V94.082H280.913V93.082H279.913ZM268.285 93.082V92.082H267.285V93.082H268.285ZM268.285 97.638H267.285V98.638H268.285V97.638ZM277.533 97.638H278.533V96.638H277.533V97.638ZM277.533 101.888V102.888H278.533V101.888H277.533ZM268.285 101.888V100.888H267.285V101.888H268.285ZM268.285 106.478H267.285V107.478H268.285V106.478ZM280.355 106.478H281.355V105.478H280.355V106.478ZM280.355 111V112H281.355V111H280.355ZM263.437 111V88.56H261.437V111H263.437ZM262.437 89.56H279.913V87.56H262.437V89.56ZM278.913 88.56V93.082H280.913V88.56H278.913ZM279.913 92.082H268.285V94.082H279.913V92.082ZM267.285 93.082V97.638H269.285V93.082H267.285ZM268.285 98.638H277.533V96.638H268.285V98.638ZM276.533 97.638V101.888H278.533V97.638H276.533ZM277.533 100.888H268.285V102.888H277.533V100.888ZM267.285 101.888V106.478H269.285V101.888H267.285ZM268.285 107.478H280.355V105.478H268.285V107.478ZM279.355 106.478V111H281.355V106.478H279.355ZM280.355 110H262.437V112H280.355V110ZM300.138 90.43L299.492 91.1934L299.498 91.1982L300.138 90.43ZM301.192 99.61L300.384 99.0208L300.382 99.0239L301.192 99.61ZM297.86 101.956L297.535 101.01L296.326 101.426L297.02 102.499L297.86 101.956ZM303.708 111V112H305.545L304.548 110.457L303.708 111ZM297.248 111L296.385 111.505L296.674 112H297.248V111ZM292.454 102.806L293.317 102.301L293.027 101.806H292.454V102.806ZM288.952 102.806V101.806H287.952V102.806H288.952ZM288.952 111V112H289.952V111H288.952ZM283.206 111H282.206V112H283.206V111ZM283.206 88.56V87.56H282.206V88.56H283.206ZM295.65 97.978L295.025 97.1971L295.65 97.978ZM288.952 92.98V91.98H287.952V92.98H288.952ZM288.952 98.658H287.952V99.658H288.952V98.658ZM293.916 89.56C296.445 89.56 298.258 90.1494 299.492 91.1934L300.784 89.6666C299.071 88.2173 296.736 87.56 293.916 87.56V89.56ZM299.498 91.1982C300.745 92.2378 301.382 93.6229 301.382 95.462H303.382C303.382 93.0851 302.523 91.1156 300.778 89.6618L299.498 91.1982ZM301.382 95.462C301.382 96.9803 301.025 98.1421 300.384 99.0208L302 100.199C302.946 98.9019 303.382 97.2984 303.382 95.462H301.382ZM300.382 99.0239C299.751 99.8957 298.824 100.567 297.535 101.01L298.185 102.902C299.797 102.348 301.091 101.455 302.002 100.196L300.382 99.0239ZM297.02 102.499L302.868 111.543L304.548 110.457L298.7 101.413L297.02 102.499ZM303.708 110H297.248V112H303.708V110ZM298.111 110.495L293.317 102.301L291.591 103.311L296.385 111.505L298.111 110.495ZM292.454 101.806H288.952V103.806H292.454V101.806ZM287.952 102.806V111H289.952V102.806H287.952ZM288.952 110H283.206V112H288.952V110ZM284.206 111V88.56H282.206V111H284.206ZM283.206 89.56H293.916V87.56H283.206V89.56ZM293.1 99.658C294.34 99.658 295.455 99.4143 296.274 98.7589L295.025 97.1971C294.711 97.4483 294.126 97.658 293.1 97.658V99.658ZM296.274 98.7589C297.159 98.0514 297.5 96.9825 297.5 95.802H295.5C295.5 96.6161 295.274 96.9979 295.025 97.1971L296.274 98.7589ZM297.5 95.802C297.5 94.6531 297.145 93.6268 296.288 92.916C295.468 92.2349 294.347 91.98 293.1 91.98V93.98C294.12 93.98 294.698 94.1955 295.011 94.455C295.288 94.6849 295.5 95.0696 295.5 95.802H297.5ZM293.1 91.98H288.952V93.98H293.1V91.98ZM287.952 92.98V98.658H289.952V92.98H287.952ZM288.952 99.658H293.1V97.658H288.952V99.658ZM305.967 111H304.967V112H305.967V111ZM305.967 88.56V87.56H304.967V88.56H305.967ZM323.001 90.124L322.38 90.9075L323.001 90.124ZM320.417 99.644L320.272 98.6546L319.417 98.7803V99.644H320.417ZM320.417 99.678H319.417V100.555L320.287 100.669L320.417 99.678ZM324.259 101.48L323.501 102.132L323.509 102.142L323.518 102.151L324.259 101.48ZM323.477 109.436L324.086 110.23L324.088 110.228L323.477 109.436ZM311.611 97.74H310.611V98.74H311.611V97.74ZM311.611 92.844V91.844H310.611V92.844H311.611ZM311.611 106.886H310.611V107.886H311.611V106.886ZM311.611 101.922V100.922H310.611V101.922H311.611ZM306.967 111V88.56H304.967V111H306.967ZM305.967 89.56H316.881V87.56H305.967V89.56ZM316.881 89.56C319.556 89.56 321.324 90.0705 322.38 90.9075L323.623 89.3405C322.049 88.0922 319.738 87.56 316.881 87.56V89.56ZM322.38 90.9075C323.415 91.7285 323.973 92.9124 323.973 94.612H325.973C325.973 92.4129 325.217 90.6049 323.623 89.3405L322.38 90.9075ZM323.973 94.612C323.973 95.6689 323.668 96.5432 323.072 97.283L324.63 98.537C325.531 97.4181 325.973 96.0937 325.973 94.612H323.973ZM323.072 97.283C322.526 97.962 321.642 98.4531 320.272 98.6546L320.563 100.633C322.275 100.382 323.681 99.7167 324.63 98.537L323.072 97.283ZM319.417 99.644V99.678H321.417V99.644H319.417ZM320.287 100.669C321.852 100.875 322.872 101.401 323.501 102.132L325.017 100.828C323.969 99.6097 322.427 98.9339 320.548 98.6865L320.287 100.669ZM323.518 102.151C324.202 102.907 324.551 103.82 324.551 104.948H326.551C326.551 103.356 326.039 101.957 325.001 100.809L323.518 102.151ZM324.551 104.948C324.551 106.601 323.976 107.789 322.867 108.644L324.088 110.228C325.744 108.952 326.551 107.148 326.551 104.948H324.551ZM322.869 108.642C321.758 109.494 319.987 110 317.391 110V112C320.191 112 322.476 111.464 324.086 110.23L322.869 108.642ZM317.391 110H305.967V112H317.391V110ZM311.611 98.74H315.861V96.74H311.611V98.74ZM315.861 98.74C317.007 98.74 318.05 98.5205 318.824 97.9155C319.643 97.274 319.989 96.3364 319.989 95.292H317.989C317.989 95.8796 317.814 96.166 317.591 96.3405C317.321 96.5515 316.801 96.74 315.861 96.74V98.74ZM319.989 95.292C319.989 94.2476 319.643 93.31 318.824 92.6685C318.05 92.0635 317.007 91.844 315.861 91.844V93.844C316.801 93.844 317.321 94.0325 317.591 94.2435C317.814 94.418 317.989 94.7044 317.989 95.292H319.989ZM315.861 91.844H311.611V93.844H315.861V91.844ZM310.611 92.844V97.74H312.611V92.844H310.611ZM311.611 107.886H316.405V105.886H311.611V107.886ZM316.405 107.886C317.565 107.886 318.62 107.66 319.399 107.04C320.222 106.385 320.567 105.431 320.567 104.37H318.567C318.567 104.986 318.385 105.291 318.154 105.474C317.88 105.693 317.353 105.886 316.405 105.886V107.886ZM320.567 104.37C320.567 103.322 320.216 102.383 319.389 101.743C318.611 101.141 317.56 100.922 316.405 100.922V102.922C317.358 102.922 317.889 103.111 318.165 103.325C318.392 103.501 318.567 103.786 318.567 104.37H320.567ZM316.405 100.922H311.611V102.922H316.405V100.922ZM310.611 101.922V106.886H312.611V101.922H310.611ZM341.245 99.542H342.245V98.542H341.245V99.542ZM341.245 104.268V105.268H342.245V104.268H341.245ZM328.801 104.268H327.801V105.268H328.801V104.268ZM328.801 99.542V98.542H327.801V99.542H328.801ZM340.245 99.542V104.268H342.245V99.542H340.245ZM341.245 103.268H328.801V105.268H341.245V103.268ZM329.801 104.268V99.542H327.801V104.268H329.801ZM328.801 100.542H341.245V98.542H328.801V100.542ZM371.788 88.56H372.788V87.56H371.788V88.56ZM371.788 111V112H372.788V111H371.788ZM366.62 111H365.62V112H366.62V111ZM366.62 100.698L365.621 100.673L365.62 100.686V100.698H366.62ZM366.79 93.796L367.79 93.8206L367.815 92.796H366.79V93.796ZM366.722 93.796V92.796H365.994L365.77 93.4894L366.722 93.796ZM361.18 111V112H361.909L362.132 111.307L361.18 111ZM356.454 111L355.502 111.307L355.726 112H356.454V111ZM350.912 93.796L351.864 93.4894L351.641 92.796H350.912V93.796ZM350.844 93.796V92.796H349.819L349.845 93.8206L350.844 93.796ZM351.014 100.698H352.014V100.686L352.014 100.673L351.014 100.698ZM351.014 111V112H352.014V111H351.014ZM345.812 111H344.812V112H345.812V111ZM345.812 88.56V87.56H344.812V88.56H345.812ZM354.142 88.56L355.098 88.2643L354.88 87.56H354.142V88.56ZM357.678 99.984L358.645 99.7285L358.64 99.7083L358.634 99.6883L357.678 99.984ZM358.936 104.744L357.969 105L358.166 105.744H358.936V104.744ZM359.004 104.744V105.744H359.768L359.969 105.008L359.004 104.744ZM360.296 100.018L359.34 99.7257L359.336 99.7399L359.332 99.7543L360.296 100.018ZM363.798 88.56V87.56H363.058L362.842 88.2677L363.798 88.56ZM370.788 88.56V111H372.788V88.56H370.788ZM371.788 110H366.62V112H371.788V110ZM367.62 111V100.698H365.62V111H367.62ZM367.62 100.723L367.79 93.8206L365.791 93.7714L365.621 100.673L367.62 100.723ZM366.79 92.796H366.722V94.796H366.79V92.796ZM365.77 93.4894L360.228 110.693L362.132 111.307L367.674 94.1026L365.77 93.4894ZM361.18 110H356.454V112H361.18V110ZM357.406 110.693L351.864 93.4894L349.96 94.1026L355.502 111.307L357.406 110.693ZM350.912 92.796H350.844V94.796H350.912V92.796ZM349.845 93.8206L350.015 100.723L352.014 100.673L351.844 93.7714L349.845 93.8206ZM350.014 100.698V111H352.014V100.698H350.014ZM351.014 110H345.812V112H351.014V110ZM346.812 111V88.56H344.812V111H346.812ZM345.812 89.56H354.142V87.56H345.812V89.56ZM353.187 88.8557L356.723 100.28L358.634 99.6883L355.098 88.2643L353.187 88.8557ZM356.711 100.24L357.969 105L359.903 104.488L358.645 99.7285L356.711 100.24ZM358.936 105.744H359.004V103.744H358.936V105.744ZM359.969 105.008L361.261 100.282L359.332 99.7543L358.04 104.48L359.969 105.008ZM361.253 100.31L364.755 88.8523L362.842 88.2677L359.34 99.7257L361.253 100.31ZM363.798 89.56H371.788V87.56H363.798V89.56ZM376.078 111H375.078V112H376.078V111ZM376.078 88.56V87.56H375.078V88.56H376.078ZM393.554 88.56H394.554V87.56H393.554V88.56ZM393.554 93.082V94.082H394.554V93.082H393.554ZM381.926 93.082V92.082H380.926V93.082H381.926ZM381.926 97.638H380.926V98.638H381.926V97.638ZM391.174 97.638H392.174V96.638H391.174V97.638ZM391.174 101.888V102.888H392.174V101.888H391.174ZM381.926 101.888V100.888H380.926V101.888H381.926ZM381.926 106.478H380.926V107.478H381.926V106.478ZM393.996 106.478H394.996V105.478H393.996V106.478ZM393.996 111V112H394.996V111H393.996ZM377.078 111V88.56H375.078V111H377.078ZM376.078 89.56H393.554V87.56H376.078V89.56ZM392.554 88.56V93.082H394.554V88.56H392.554ZM393.554 92.082H381.926V94.082H393.554V92.082ZM380.926 93.082V97.638H382.926V93.082H380.926ZM381.926 98.638H391.174V96.638H381.926V98.638ZM390.174 97.638V101.888H392.174V97.638H390.174ZM391.174 100.888H381.926V102.888H391.174V100.888ZM380.926 101.888V106.478H382.926V101.888H380.926ZM381.926 107.478H393.996V105.478H381.926V107.478ZM392.996 106.478V111H394.996V106.478H392.996ZM393.996 110H376.078V112H393.996V110ZM414.425 91.484L413.701 92.1741L413.705 92.1784L414.425 91.484ZM414.425 108.076L413.705 107.382L413.701 107.386L414.425 108.076ZM396.847 111H395.847V112H396.847V111ZM396.847 88.56V87.56H395.847V88.56H396.847ZM409.937 104.88L409.142 104.273L409.141 104.275L409.937 104.88ZM409.937 94.714L409.135 95.3115L409.142 95.3203L409.148 95.329L409.937 94.714ZM402.695 92.98V91.98H401.695V92.98H402.695ZM402.695 106.58H401.695V107.58H402.695V106.58ZM406.367 89.56C409.694 89.56 412.084 90.478 413.701 92.1741L415.149 90.7939C413.048 88.5913 410.066 87.56 406.367 87.56V89.56ZM413.705 92.1784C415.355 93.8875 416.247 96.3718 416.247 99.78H418.247C418.247 96.0256 417.258 92.9791 415.144 90.7896L413.705 92.1784ZM416.247 99.78C416.247 103.188 415.355 105.672 413.705 107.382L415.144 108.77C417.258 106.581 418.247 103.534 418.247 99.78H416.247ZM413.701 107.386C412.084 109.082 409.694 110 406.367 110V112C410.066 112 413.048 110.969 415.149 108.766L413.701 107.386ZM406.367 110H396.847V112H406.367V110ZM397.847 111V88.56H395.847V111H397.847ZM396.847 89.56H406.367V87.56H396.847V89.56ZM405.789 107.58C407.891 107.58 409.623 106.946 410.733 105.485L409.141 104.275C408.528 105.081 407.494 105.58 405.789 105.58V107.58ZM410.731 105.487C411.804 104.085 412.263 102.131 412.263 99.78H410.263C410.263 101.917 409.838 103.363 409.142 104.273L410.731 105.487ZM412.263 99.78C412.263 97.4307 411.804 95.4824 410.725 94.099L409.148 95.329C409.837 96.2122 410.263 97.6413 410.263 99.78H412.263ZM410.739 94.1165C409.631 92.6301 407.898 91.98 405.789 91.98V93.98C407.487 93.98 408.52 94.4858 409.135 95.3115L410.739 94.1165ZM405.789 91.98H402.695V93.98H405.789V91.98ZM401.695 92.98V106.58H403.695V92.98H401.695ZM402.695 107.58H405.789V105.58H402.695V107.58Z" fill="#000F43"/>
</svg>
