<svg width="429" height="99" viewBox="0 0 429 99" fill="none" xmlns="http://www.w3.org/2000/svg">
<g clip-path="url(#clip0_313_48)">
<path fill-rule="evenodd" clip-rule="evenodd" d="M89.1886 52.1117C89.1886 46.2261 88.0318 40.3982 85.7842 34.9606C83.5366 29.523 80.2422 24.5823 76.0891 20.4206C71.936 16.2588 67.0056 12.9576 61.5793 10.7053C56.1531 8.45295 50.3373 7.2937 44.4639 7.2937C38.5906 7.2937 32.7748 8.45295 27.3485 10.7053C21.9223 12.9576 16.9918 16.2588 12.8388 20.4206C8.68569 24.5823 5.39129 29.523 3.14366 34.9606C0.896035 40.3982 -0.260803 46.2261 -0.260803 52.1117C-0.260803 57.9973 0.896035 63.8252 3.14366 69.2628C5.39129 74.7003 8.68569 79.641 12.8388 83.8028C16.9918 87.9645 21.9223 91.2658 27.3485 93.5181C32.7748 95.7704 38.5906 96.9296 44.4639 96.9296C50.3373 96.9296 56.1531 95.7704 61.5793 93.5181C67.0056 91.2658 71.936 87.9645 76.0891 83.8028C80.2422 79.641 83.5366 74.7003 85.7842 69.2628C88.0318 63.8252 89.1886 57.9973 89.1886 52.1117" fill="#2169D6"/>
<path fill-rule="evenodd" clip-rule="evenodd" d="M9.4444 65.7821V38.4311H30.8181V17.0128H58.1123V40.5267H79.486V63.6878H58.1123V85.5249H30.8181V65.7821H9.4444Z" fill="white"/>
<path fill-rule="evenodd" clip-rule="evenodd" d="M48.3165 16.9575C47.7274 17.0628 47.1427 17.1342 46.5439 17.1682V18.2558C47.374 18.5123 48.1386 18.8781 48.9166 19.259L49.8225 19.7998L50.6487 20.3925L51.3961 21.0316L52.0671 21.7112L52.6642 22.4252L53.1905 23.1676L53.6493 23.9317L54.0447 24.7126L54.3803 25.504L54.6611 26.301L55.0745 27.8927L55.3191 29.4503C55.3868 30.1866 55.4273 30.9077 55.4411 31.6486C55.4329 32.2957 55.4075 32.9338 55.3626 33.5805C55.2729 34.5283 55.1483 35.4584 54.9621 36.3928C54.8687 36.8606 54.6903 37.2939 54.5186 37.7388C54.234 38.4079 53.926 39.0447 53.5819 39.6857C53.059 40.6005 52.4961 41.4607 51.874 42.3108C50.6546 43.9144 49.3057 45.4179 47.7585 46.7114L47.4933 46.9207V62.8139C49.323 64.2416 51.022 65.9006 52.3658 67.8018C52.8942 68.5839 53.382 69.4019 53.6709 70.3075C53.7571 70.6091 53.807 70.9204 53.8678 71.229C53.9525 71.8789 53.9939 72.4825 53.9923 73.1391L53.8712 74.3282L53.6084 75.4419L53.2256 76.4751C52.9961 76.9606 52.7536 77.4102 52.4743 77.8693C52.1891 78.2902 51.8961 78.6841 51.5747 79.0783L50.9264 79.7857C49.8932 80.7973 48.7573 81.6789 47.4933 82.3842V96.7951L47.0741 97.4924L46.7459 97.9122L46.3776 98.2704L45.9723 98.5609L45.5364 98.7789L45.0805 98.9182L44.619 98.9793L44.1642 98.9649L43.7268 98.8826L43.3133 98.7395L42.9286 98.5438L42.5751 98.3015L42.2552 98.0183L41.9702 97.697L41.7234 97.3417L41.4154 96.7632V92.5226L39.006 90.826L38.4923 90.2899C37.9133 89.4608 37.5413 88.5076 37.4738 87.4937C37.4842 87.3352 37.4599 87.1743 37.4492 87.0166C37.4534 86.7104 37.4776 86.4352 37.5273 86.1341C37.662 85.556 37.8581 85.0741 38.1412 84.5554C38.9671 83.1767 40.144 82.0656 41.4154 81.1027V66.3008C40.2246 65.3373 39.1857 64.2514 38.2255 63.0607C37.8561 62.5683 37.5108 62.0748 37.1774 61.5581C36.896 61.087 36.6345 60.6166 36.386 60.1277C36.0004 59.3029 35.6867 58.4927 35.434 57.6187C35.2288 56.825 35.0792 56.0432 35.0367 55.2249C35.0218 54.7159 35.0523 54.2069 35.0845 53.7C35.1681 52.9043 35.2922 52.151 35.4673 51.3716C35.6131 50.8182 35.7741 50.2828 35.9572 49.7423C36.3414 48.7197 36.7821 47.77 37.3084 46.8147C38.4381 44.8798 39.8012 43.123 41.4154 41.5713V35.922L42.3648 34.6876V27.2326C42.0267 27.5829 41.6814 28.0148 41.2353 28.2264C40.6683 28.6996 40.0811 29.067 39.4195 29.3947L38.7124 29.6694C38.1292 29.8371 37.5655 29.9516 36.956 29.9012C36.5877 29.8528 36.2734 29.6656 35.9542 29.482L35.6237 29.2057C35.0715 29.7179 34.5663 30.2778 34.0718 30.8477C33.306 31.7505 32.5709 32.6856 31.8896 33.6563L29.4149 35.4854L29.5494 33.2617L28.1167 33.1851C29.6 31.8696 29.6838 31.2848 31.1338 29.9342C31.7841 29.3215 32.4232 28.6985 33.0533 28.0671L32.7599 27.699L32.4738 27.1196C32.3918 26.8155 32.351 26.5586 32.3341 26.2452L32.3699 25.696C32.6231 24.181 33.416 22.7913 34.2849 21.5467C34.6576 21.1106 35.0319 20.7069 35.4417 20.3077C35.8268 19.965 36.2106 19.6525 36.6239 19.3468C37.0154 19.0834 37.4031 18.8446 37.8152 18.6168C38.5597 18.2441 39.2802 17.9623 40.0809 17.7399C40.8373 17.5582 41.5869 17.4354 42.3648 17.4249V16.6717C41.0291 16.2769 39.8182 15.6031 38.7607 14.6977C38.5359 14.4904 38.3238 14.2799 38.114 14.0553C37.566 13.421 37.1556 12.7867 36.8111 12.0202C36.6563 11.6319 36.5346 11.2553 36.4324 10.8484C36.3163 10.2834 36.2663 9.75523 36.2566 9.17782C36.2776 8.71719 36.3242 8.28981 36.4021 7.83451C36.5063 7.38721 36.6287 6.97227 36.7836 6.53931C36.9626 6.1132 37.1545 5.71769 37.3773 5.31253C37.6234 4.91409 37.8781 4.54333 38.1615 4.16989C38.5744 3.67461 38.9961 3.23517 39.4712 2.79917C39.9799 2.37014 40.4892 1.99405 41.047 1.63166C41.639 1.27955 42.2239 0.97911 42.8536 0.700624C43.518 0.437116 44.1665 0.224512 44.8571 0.0417313C45.3881 -0.0770758 45.9078 -0.171518 46.4457 -0.247676C46.9719 -0.300606 47.4839 -0.332468 48.0118 -0.343384C48.6953 -0.330437 49.3446 -0.279792 50.022 -0.183452C50.5063 -0.0942195 50.9717 0.0116442 51.4474 0.141748C52.0587 0.337602 52.6225 0.559098 53.2024 0.835426C53.6124 1.0554 53.9965 1.28514 54.3836 1.54395C54.7515 1.81787 55.0877 2.0961 55.4249 2.40772C55.7418 2.73482 56.0226 3.0595 56.3002 3.42075C56.5567 3.80002 56.7734 4.1666 56.9809 4.57417C57.1653 5.00092 57.3093 5.40532 57.4366 5.85186C57.5357 6.31211 57.5999 6.74304 57.6381 7.21116C57.6464 7.67496 57.6264 8.10513 57.5764 8.56512C57.4988 9.01878 57.4008 9.43828 57.2707 9.87848C57.1155 10.3135 56.9459 10.7157 56.7453 11.1301C56.5199 11.5394 56.2856 11.9185 56.022 12.3021C55.7345 12.6811 55.4412 13.0313 55.1215 13.3814C54.7779 13.7256 54.4313 14.0435 54.0604 14.3557C53.39 14.875 52.723 15.305 51.9788 15.7082C51.5113 15.9376 51.048 16.1424 50.5648 16.3335C49.8213 16.595 49.0893 16.8065 48.3165 16.9575V16.9575ZM41.4154 90.7289V87.0261C41.1312 87.3668 40.8429 87.7233 40.6056 88.1009C40.6702 88.5678 40.7685 89.0325 40.914 89.4818C41.0595 89.9037 41.2468 90.3151 41.4154 90.7289V90.7289ZM41.4006 54.3343C41.3788 54.4436 41.3844 54.4657 41.4154 54.5814V54.2712L41.4006 54.3343ZM41.4154 54.6387C41.3592 55.0964 41.3327 55.4865 41.4154 55.9434V54.6387ZM47.7917 71.7557C47.6945 71.6369 47.5954 71.5196 47.4933 71.4051V76.3357L48.6402 74.3329C48.7085 73.9564 48.667 73.6429 48.5997 73.2688C48.462 72.6931 48.1509 72.2163 47.7917 71.7557ZM46.9451 28.0561C46.817 27.8808 46.6849 27.7068 46.5439 27.5422V34.6843L46.9396 35.1821C47.4315 34.3812 47.7514 33.4951 47.9497 32.5814C48.0064 32.2164 48.0414 31.8725 48.0548 31.5044C48.0416 30.877 47.9618 30.3304 47.7863 29.7292C47.5765 29.1184 47.3133 28.5848 46.9451 28.0561V28.0561Z" stroke="black" stroke-width="0.100629"/>
<path fill-rule="evenodd" clip-rule="evenodd" d="M48.3165 16.9575C47.7274 17.0628 47.1427 17.1342 46.5439 17.1682V18.2558C47.374 18.5123 48.1386 18.8781 48.9166 19.259L49.8225 19.7998L50.6487 20.3925L51.3961 21.0316L52.0671 21.7112L52.6642 22.4252L53.1905 23.1676L53.6493 23.9317L54.0447 24.7126L54.3803 25.504L54.6611 26.301L55.0745 27.8927L55.3191 29.4503C55.3868 30.1866 55.4273 30.9077 55.4411 31.6486C55.4329 32.2957 55.4075 32.9338 55.3626 33.5805C55.2729 34.5283 55.1483 35.4584 54.9621 36.3928C54.8687 36.8606 54.6903 37.2939 54.5186 37.7388C54.234 38.4079 53.926 39.0447 53.5819 39.6857C53.059 40.6005 52.4961 41.4607 51.874 42.3108C50.6546 43.9144 49.3057 45.4179 47.7585 46.7114L47.4933 46.9207V62.8139C49.323 64.2416 51.022 65.9006 52.3658 67.8018C52.8942 68.5839 53.382 69.4019 53.6709 70.3075C53.7571 70.6091 53.807 70.9204 53.8678 71.229C53.9525 71.8789 53.9939 72.4825 53.9923 73.1391L53.8712 74.3282L53.6084 75.4419L53.2256 76.4751C52.9961 76.9606 52.7536 77.4102 52.4743 77.8693C52.1891 78.2902 51.8961 78.6841 51.5747 79.0783L50.9264 79.7857C49.8932 80.7973 48.7573 81.6789 47.4933 82.3842V96.7951L47.0741 97.4924L46.7459 97.9122L46.3776 98.2704L45.9723 98.5609L45.5364 98.7789L45.0805 98.9182L44.619 98.9793L44.1642 98.9649L43.7268 98.8826L43.3133 98.7395L42.9286 98.5438L42.5751 98.3015L42.2552 98.0183L41.9702 97.697L41.7234 97.3417L41.4154 96.7632V92.5226L39.006 90.826L38.4923 90.2899C37.9133 89.4608 37.5413 88.5076 37.4738 87.4937C37.4842 87.3352 37.4599 87.1743 37.4492 87.0166C37.4534 86.7104 37.4776 86.4352 37.5273 86.1341C37.662 85.556 37.8581 85.0741 38.1412 84.5554C38.9671 83.1767 40.144 82.0656 41.4154 81.1027V66.3008C40.2246 65.3373 39.1857 64.2514 38.2255 63.0607C37.8561 62.5683 37.5108 62.0748 37.1774 61.5581C36.896 61.087 36.6345 60.6166 36.386 60.1277C36.0004 59.3029 35.6867 58.4927 35.434 57.6187C35.2288 56.825 35.0792 56.0432 35.0367 55.2249C35.0218 54.7159 35.0523 54.2069 35.0845 53.7C35.1681 52.9043 35.2922 52.151 35.4673 51.3716C35.6131 50.8182 35.7741 50.2828 35.9572 49.7423C36.3414 48.7197 36.7821 47.77 37.3084 46.8147C38.4381 44.8798 39.8012 43.123 41.4154 41.5713V35.922L42.3648 34.6876V27.2326C42.0267 27.5829 41.6814 28.0148 41.2353 28.2264C40.6683 28.6996 40.0811 29.067 39.4195 29.3947L38.7124 29.6694C38.1292 29.8371 37.5655 29.9516 36.956 29.9012C36.5877 29.8528 36.2734 29.6656 35.9542 29.482L35.6237 29.2057C35.0715 29.7179 34.5663 30.2778 34.0718 30.8477C33.306 31.7505 32.5709 32.6856 31.8896 33.6563L29.4149 35.4854L29.5494 33.2617L28.1167 33.1851C29.6 31.8696 29.6838 31.2848 31.1338 29.9342C31.7841 29.3215 32.4232 28.6985 33.0533 28.0671L32.7599 27.699L32.4738 27.1196C32.3918 26.8155 32.351 26.5586 32.3341 26.2452L32.3699 25.696C32.6231 24.181 33.416 22.7913 34.2849 21.5467C34.6576 21.1106 35.0319 20.7069 35.4417 20.3077C35.8268 19.965 36.2106 19.6525 36.6239 19.3468C37.0154 19.0834 37.4031 18.8446 37.8152 18.6168C38.5597 18.2441 39.2802 17.9623 40.0809 17.7399C40.8373 17.5582 41.5869 17.4354 42.3648 17.4249V16.6717C41.0291 16.2769 39.8182 15.6031 38.7607 14.6977C38.5359 14.4904 38.3238 14.2799 38.114 14.0553C37.566 13.421 37.1556 12.7867 36.8111 12.0202C36.6563 11.6319 36.5346 11.2553 36.4324 10.8484C36.3163 10.2834 36.2663 9.75523 36.2566 9.17782C36.2776 8.71719 36.3242 8.28981 36.4021 7.83451C36.5063 7.38721 36.6287 6.97227 36.7836 6.53931C36.9626 6.1132 37.1545 5.71769 37.3773 5.31253C37.6234 4.91409 37.8781 4.54333 38.1615 4.16989C38.5744 3.67461 38.9961 3.23517 39.4712 2.79917C39.9799 2.37014 40.4892 1.99405 41.047 1.63166C41.639 1.27955 42.2239 0.97911 42.8536 0.700624C43.518 0.437116 44.1665 0.224512 44.8571 0.0417313C45.3881 -0.0770758 45.9078 -0.171518 46.4457 -0.247676C46.9719 -0.300606 47.4839 -0.332468 48.0118 -0.343384C48.6953 -0.330437 49.3446 -0.279792 50.022 -0.183452C50.5063 -0.0942195 50.9717 0.0116442 51.4474 0.141748C52.0587 0.337602 52.6225 0.559098 53.2024 0.835426C53.6124 1.0554 53.9965 1.28514 54.3836 1.54395C54.7515 1.81787 55.0877 2.0961 55.4249 2.40772C55.7418 2.73482 56.0226 3.0595 56.3002 3.42075C56.5567 3.80002 56.7734 4.1666 56.9809 4.57417C57.1653 5.00092 57.3093 5.40532 57.4366 5.85186C57.5357 6.31211 57.5999 6.74304 57.6381 7.21116C57.6464 7.67496 57.6264 8.10513 57.5764 8.56512C57.4988 9.01878 57.4008 9.43828 57.2707 9.87848C57.1155 10.3135 56.9459 10.7157 56.7453 11.1301C56.5199 11.5394 56.2856 11.9185 56.022 12.3021C55.7345 12.6811 55.4412 13.0313 55.1215 13.3814C54.7779 13.7256 54.4313 14.0435 54.0604 14.3557C53.39 14.875 52.723 15.305 51.9788 15.7082C51.5113 15.9376 51.048 16.1424 50.5648 16.3335C49.8213 16.595 49.0893 16.8065 48.3165 16.9575V16.9575ZM41.4154 90.7289V87.0261C41.1312 87.3668 40.8429 87.7233 40.6056 88.1009C40.6702 88.5678 40.7685 89.0325 40.914 89.4818C41.0595 89.9037 41.2468 90.3151 41.4154 90.7289V90.7289ZM41.4006 54.3343C41.3788 54.4436 41.3844 54.4657 41.4154 54.5814V54.2712L41.4006 54.3343ZM41.4154 54.6387C41.3592 55.0964 41.3327 55.4865 41.4154 55.9434V54.6387ZM47.7917 71.7557C47.6945 71.6369 47.5954 71.5196 47.4933 71.4051V76.3357L48.6402 74.3329C48.7085 73.9564 48.667 73.6429 48.5997 73.2688C48.462 72.6931 48.1509 72.2163 47.7917 71.7557ZM46.9451 28.0561C46.817 27.8808 46.6849 27.7068 46.5439 27.5422V34.6843L46.9396 35.1821C47.4315 34.3812 47.7514 33.4951 47.9497 32.5814C48.0064 32.2164 48.0414 31.8725 48.0548 31.5044C48.0416 30.877 47.9618 30.3304 47.7863 29.7292C47.5765 29.1184 47.3133 28.5848 46.9451 28.0561V28.0561Z" fill="#335965"/>
<path fill-rule="evenodd" clip-rule="evenodd" d="M33.8077 27.1839C32.568 25.8468 35.1871 22.2478 35.1871 22.2478C38.76 17.8702 43.4929 18.5415 43.4624 18.6933L43.5048 18.7004V15.7912C40.3879 15.1098 37.992 13.0957 37.4912 10.3375C36.7525 6.27393 40.4002 2.0993 45.6105 1.04425C50.8208 -0.010793 55.673 2.44291 56.4111 6.50608C57.1492 10.5693 53.5018 14.7436 48.2912 15.7991C47.3075 15.9981 46.3366 16.0721 45.4039 16.0336V19.0998C57.3605 22.32 53.8067 36.1398 53.807 36.3649C52.1628 41.4465 47.2438 45.8626 46.3533 46.3165V63.3725C51.5925 67.3907 52.5572 70.419 52.6249 70.8193C54.103 77.2567 48.1197 80.8065 46.3533 81.7004V96.4781C45.2328 98.5963 43.2323 97.9549 42.5554 96.4781V84.2647C40.6894 85.8758 39.6964 87.3428 39.4252 87.8523C39.5778 89.283 39.9156 90.0706 39.9156 90.0706C38.856 89.4395 38.5279 87.4048 38.6355 87.4052C38.2 85.1738 40.9083 82.8584 42.5554 81.6804V65.7554C35.9433 60.5897 36.1726 54.9253 36.1726 54.9253C36.1736 48.8177 40.3669 44.083 42.5554 42.0641V36.3117L43.4961 35.0888H43.5048V25.0727C42.9295 25.1815 42.576 25.4066 42.576 25.4066C41.1321 26.8064 40.8466 27.2554 40.7041 27.1839C38.6427 29.0016 37.0587 28.7629 37.0587 28.7629C35.4771 28.1631 36.9232 27.4835 36.271 27.2823C34.1034 28.4672 30.9507 33.0086 30.9507 33.0086L31.6404 31.6266L30.7538 31.8239C33.2169 29.6521 35.8766 26.789 35.8766 26.789C35.9545 26.6474 35.9518 26.2331 35.6554 26.3842C34.7228 27.7359 33.9411 27.2059 33.8077 27.1839V27.1839ZM42.5554 49.7049C40.9763 51.8394 40.0633 54.1339 40.2616 54.6812C39.9456 56.8049 41.3169 58.8633 42.5554 60.2417V49.7049V49.7049ZM46.3533 78.9889C48.7046 77.0654 50.1263 75.1557 49.768 73.3862C49.607 71.5009 47.4966 69.7305 46.3533 68.842V78.9889V78.9889ZM46.3533 37.9238C51.6616 31.8158 47.977 27.5306 47.6001 27.0314C46.8432 26.0702 46.0885 25.5402 45.4039 25.2672V35.0888H45.4077L46.3533 36.2782V37.9238V37.9238Z" stroke="#739FAD" stroke-width="0.269998"/>
<path fill-rule="evenodd" clip-rule="evenodd" d="M33.8077 27.1839C32.568 25.8468 35.1871 22.2478 35.1871 22.2478C38.76 17.8702 43.4929 18.5415 43.4624 18.6933L43.5048 18.7004V15.7912C40.3879 15.1098 37.992 13.0957 37.4912 10.3375C36.7525 6.27393 40.4002 2.0993 45.6105 1.04425C50.8208 -0.010793 55.673 2.44291 56.4111 6.50608C57.1492 10.5693 53.5018 14.7436 48.2912 15.7991C47.3075 15.9981 46.3366 16.0721 45.4039 16.0336V19.0998C57.3605 22.32 53.8067 36.1398 53.807 36.3649C52.1628 41.4465 47.2438 45.8626 46.3533 46.3165V63.3725C51.5925 67.3907 52.5572 70.419 52.6249 70.8193C54.103 77.2567 48.1197 80.8065 46.3533 81.7004V96.4781C45.2328 98.5963 43.2323 97.9549 42.5554 96.4781V84.2647C40.6894 85.8758 39.6964 87.3428 39.4252 87.8523C39.5778 89.283 39.9156 90.0706 39.9156 90.0706C38.856 89.4395 38.5279 87.4048 38.6355 87.4052C38.2 85.1738 40.9083 82.8584 42.5554 81.6804V65.7554C35.9433 60.5897 36.1726 54.9253 36.1726 54.9253C36.1736 48.8177 40.3669 44.083 42.5554 42.0641V36.3117L43.4961 35.0888H43.5048V25.0727C42.9295 25.1815 42.576 25.4066 42.576 25.4066C41.1321 26.8064 40.8466 27.2554 40.7041 27.1839C38.6427 29.0016 37.0587 28.7629 37.0587 28.7629C35.4771 28.1631 36.9232 27.4835 36.271 27.2823C34.1034 28.4672 30.9507 33.0086 30.9507 33.0086L31.6404 31.6266L30.7538 31.8239C33.2169 29.6521 35.8766 26.789 35.8766 26.789C35.9545 26.6474 35.9518 26.2331 35.6554 26.3842C34.7228 27.7359 33.9411 27.2059 33.8077 27.1839V27.1839ZM42.5554 49.7049C40.9763 51.8394 40.0633 54.1339 40.2616 54.6812C39.9456 56.8049 41.3169 58.8633 42.5554 60.2417V49.7049V49.7049ZM46.3533 78.9889C48.7046 77.0654 50.1263 75.1557 49.768 73.3862C49.607 71.5009 47.4966 69.7305 46.3533 68.842V78.9889V78.9889ZM46.3533 37.9238C51.6616 31.8158 47.977 27.5306 47.6001 27.0314C46.8432 26.0702 46.0885 25.5402 45.4039 25.2672V35.0888H45.4077L46.3533 36.2782V37.9238V37.9238Z" fill="#DEEFFF"/>
</g>
<path d="M96.0019 19.778H96.3619C96.8179 19.778 97.2019 20.03 97.5139 20.534L103.706 29.534V20.48C103.706 20.228 103.76 20.048 103.868 19.94C103.976 19.832 104.15 19.778 104.39 19.778H104.552C105.02 19.778 105.254 20.012 105.254 20.48V31.136C105.254 31.388 105.194 31.598 105.074 31.766C104.954 31.922 104.78 32 104.552 32H104.318C103.862 32 103.424 31.694 103.004 31.082L96.8299 22.1V31.316C96.8299 31.772 96.6139 32 96.1819 32H96.0019C95.5219 32 95.2819 31.772 95.2819 31.316V20.66C95.2819 20.072 95.5219 19.778 96.0019 19.778ZM109.373 23.126H109.481C109.937 23.126 110.165 23.348 110.165 23.792V31.316C110.165 31.772 109.937 32 109.481 32H109.373C108.917 32 108.689 31.772 108.689 31.316V23.792C108.689 23.348 108.917 23.126 109.373 23.126ZM108.437 20.588C108.437 20.312 108.533 20.078 108.725 19.886C108.917 19.682 109.145 19.58 109.409 19.58C109.685 19.58 109.919 19.682 110.111 19.886C110.315 20.078 110.417 20.312 110.417 20.588C110.417 20.852 110.321 21.086 110.129 21.29C109.937 21.482 109.703 21.578 109.427 21.578C109.151 21.578 108.917 21.482 108.725 21.29C108.533 21.098 108.437 20.864 108.437 20.588ZM112.536 27.59C112.536 26.09 112.956 24.944 113.796 24.152C114.636 23.36 115.602 22.964 116.694 22.964C117.786 22.964 118.65 23.246 119.286 23.81C119.922 24.362 120.24 25.052 120.24 25.88C120.24 26.708 119.91 27.356 119.25 27.824C118.602 28.28 117.762 28.508 116.73 28.508C115.698 28.508 114.768 28.346 113.94 28.022C113.94 28.898 114.24 29.606 114.84 30.146C115.44 30.674 116.172 30.938 117.036 30.938C118.38 30.938 119.22 30.524 119.556 29.696C119.76 29.696 119.934 29.756 120.078 29.876C120.222 29.984 120.294 30.146 120.294 30.362C120.294 30.782 119.982 31.184 119.358 31.568C118.746 31.952 117.966 32.144 117.018 32.144C115.746 32.144 114.678 31.76 113.814 30.992C112.962 30.224 112.536 29.09 112.536 27.59ZM118.872 25.826C118.872 25.358 118.668 24.962 118.26 24.638C117.864 24.314 117.312 24.152 116.604 24.152C115.908 24.152 115.296 24.434 114.768 24.998C114.24 25.562 113.97 26.198 113.958 26.906C114.822 27.194 115.68 27.338 116.532 27.338C118.092 27.338 118.872 26.834 118.872 25.826ZM123.024 23.126H123.15C123.606 23.126 123.834 23.336 123.834 23.756V24.458C124.086 24.038 124.464 23.684 124.968 23.396C125.472 23.108 126.018 22.964 126.606 22.964C127.722 22.964 128.622 23.342 129.306 24.098C130.002 24.842 130.35 25.982 130.35 27.518C130.35 29.042 129.942 30.194 129.126 30.974C128.322 31.754 127.332 32.144 126.156 32.144C125.352 32.144 124.578 31.94 123.834 31.532V35.402C123.834 35.846 123.606 36.068 123.15 36.068H123.024C122.568 36.068 122.34 35.846 122.34 35.402V23.792C122.34 23.348 122.568 23.126 123.024 23.126ZM128.856 27.5C128.856 26.36 128.616 25.532 128.136 25.016C127.656 24.488 127.008 24.224 126.192 24.224C125.376 24.224 124.776 24.584 124.392 25.304C124.02 26.024 123.834 26.96 123.834 28.112V30.362C123.954 30.446 124.248 30.56 124.716 30.704C125.196 30.836 125.676 30.902 126.156 30.902C126.96 30.902 127.608 30.62 128.1 30.056C128.604 29.492 128.856 28.64 128.856 27.5ZM133.092 23.144H133.218C133.674 23.144 133.902 23.366 133.902 23.81V28.436C133.902 30.08 134.628 30.902 136.08 30.902C136.632 30.902 137.094 30.74 137.466 30.416C138.138 29.84 138.474 28.976 138.474 27.824V23.81C138.474 23.366 138.708 23.144 139.176 23.144H139.302C139.542 23.144 139.71 23.198 139.806 23.306C139.914 23.402 139.968 23.57 139.968 23.81V31.334C139.968 31.574 139.914 31.748 139.806 31.856C139.698 31.952 139.524 32 139.284 32H139.176C138.708 32 138.474 31.778 138.474 31.334V30.434C138.306 30.818 137.946 31.202 137.394 31.586C136.854 31.958 136.272 32.144 135.648 32.144C133.488 32.144 132.408 30.938 132.408 28.526V23.81C132.408 23.366 132.636 23.144 133.092 23.144ZM143.344 19.382H143.488C143.944 19.382 144.172 19.604 144.172 20.048V24.35C144.412 23.942 144.784 23.606 145.288 23.342C145.792 23.078 146.344 22.946 146.944 22.946C148.06 22.946 148.96 23.324 149.644 24.08C150.34 24.824 150.688 25.964 150.688 27.5C150.688 29.024 150.28 30.182 149.464 30.974C148.648 31.754 147.676 32.144 146.548 32.144C145.432 32.144 144.316 31.934 143.2 31.514C143.02 31.442 142.888 31.352 142.804 31.244C142.72 31.136 142.678 30.974 142.678 30.758V20.048C142.678 19.604 142.9 19.382 143.344 19.382ZM146.782 24.224C146.026 24.224 145.402 24.524 144.91 25.124C144.418 25.712 144.172 26.492 144.172 27.464V30.344C144.844 30.704 145.6 30.884 146.44 30.884C147.28 30.884 147.946 30.602 148.438 30.038C148.942 29.474 149.194 28.628 149.194 27.5C149.194 25.316 148.39 24.224 146.782 24.224ZM153.736 19.382H153.862C154.318 19.382 154.546 19.604 154.546 20.048V31.316C154.546 31.772 154.318 32 153.862 32H153.736C153.484 32 153.304 31.946 153.196 31.838C153.1 31.73 153.052 31.556 153.052 31.316V20.048C153.052 19.808 153.1 19.64 153.196 19.544C153.304 19.436 153.484 19.382 153.736 19.382ZM158.276 23.126H158.384C158.84 23.126 159.068 23.348 159.068 23.792V31.316C159.068 31.772 158.84 32 158.384 32H158.276C157.82 32 157.592 31.772 157.592 31.316V23.792C157.592 23.348 157.82 23.126 158.276 23.126ZM157.34 20.588C157.34 20.312 157.436 20.078 157.628 19.886C157.82 19.682 158.048 19.58 158.312 19.58C158.588 19.58 158.822 19.682 159.014 19.886C159.218 20.078 159.32 20.312 159.32 20.588C159.32 20.852 159.224 21.086 159.032 21.29C158.84 21.482 158.606 21.578 158.33 21.578C158.054 21.578 157.82 21.482 157.628 21.29C157.436 21.098 157.34 20.864 157.34 20.588ZM162.861 23.99C163.305 23.642 163.779 23.384 164.283 23.216C164.787 23.048 165.399 22.964 166.119 22.964C166.839 22.964 167.469 23.126 168.009 23.45C168.561 23.774 168.837 24.122 168.837 24.494C168.837 24.95 168.579 25.208 168.063 25.268C167.943 25.004 167.673 24.764 167.253 24.548C166.833 24.32 166.335 24.206 165.759 24.206C164.955 24.206 164.289 24.494 163.761 25.07C163.233 25.634 162.969 26.462 162.969 27.554C162.969 28.646 163.239 29.48 163.779 30.056C164.319 30.632 164.967 30.92 165.723 30.92C166.923 30.92 167.733 30.53 168.153 29.75C168.381 29.75 168.573 29.822 168.729 29.966C168.885 30.098 168.963 30.272 168.963 30.488C168.963 30.908 168.675 31.292 168.099 31.64C167.523 31.976 166.863 32.144 166.119 32.144C165.387 32.144 164.763 32.06 164.247 31.892C163.743 31.712 163.275 31.448 162.843 31.1C162.411 30.74 162.069 30.26 161.817 29.66C161.565 29.06 161.439 28.364 161.439 27.572C161.439 26.768 161.565 26.06 161.817 25.448C162.081 24.824 162.429 24.338 162.861 23.99ZM171.359 23.126H176.777C177.053 23.126 177.275 23.21 177.443 23.378C177.611 23.534 177.695 23.75 177.695 24.026V24.17C177.695 24.458 177.557 24.746 177.281 25.034C177.005 25.31 176.225 26.138 174.941 27.518C173.657 28.886 172.685 29.918 172.025 30.614V30.686H176.651C177.263 30.686 177.617 30.776 177.713 30.956C177.761 31.052 177.785 31.178 177.785 31.334C177.785 31.778 177.569 32 177.137 32H171.359C170.747 32 170.441 31.7 170.441 31.1V30.92C170.441 30.668 170.597 30.374 170.909 30.038C171.461 29.45 172.277 28.544 173.357 27.32C174.449 26.096 175.271 25.19 175.823 24.602V24.44H171.359C170.915 24.44 170.693 24.224 170.693 23.792C170.693 23.348 170.915 23.126 171.359 23.126ZM180.54 23.126H180.666C181.122 23.126 181.35 23.354 181.35 23.81V24.692C181.578 24.236 181.938 23.834 182.43 23.486C182.922 23.138 183.486 22.964 184.122 22.964C185.094 22.964 185.886 23.258 186.498 23.846C187.122 24.422 187.434 25.34 187.434 26.6V31.316C187.434 31.556 187.38 31.73 187.272 31.838C187.164 31.946 186.99 32 186.75 32H186.606C186.162 32 185.94 31.772 185.94 31.316V26.654C185.94 25.778 185.754 25.154 185.382 24.782C185.01 24.41 184.47 24.224 183.762 24.224C183.054 24.224 182.478 24.512 182.034 25.088C181.59 25.664 181.368 26.426 181.368 27.374V31.316C181.368 31.772 181.134 32 180.666 32H180.54C180.3 32 180.126 31.946 180.018 31.838C179.91 31.73 179.856 31.556 179.856 31.316V23.81C179.856 23.354 180.084 23.126 180.54 23.126ZM189.606 23.144H189.948C190.332 23.144 190.566 23.33 190.65 23.702C191.382 26.582 192.192 28.91 193.08 30.686H193.242C194.25 28.202 195.06 25.874 195.672 23.702C195.78 23.33 196.014 23.144 196.374 23.144H196.662C197.034 23.144 197.22 23.276 197.22 23.54C197.22 23.612 197.202 23.696 197.166 23.792C195.774 28.136 194.262 32.036 192.63 35.492C192.534 35.696 192.432 35.84 192.324 35.924C192.228 36.02 192.072 36.068 191.856 36.068H191.406C191.118 36.068 190.974 35.93 190.974 35.654C190.974 35.57 191.04 35.396 191.172 35.132C192.06 33.416 192.582 32.366 192.738 31.982H192.702C192.486 31.946 192.348 31.898 192.288 31.838C192.228 31.766 192.186 31.724 192.162 31.712C192.138 31.688 192.108 31.646 192.072 31.586C192.036 31.514 192.012 31.472 192 31.46C191.988 31.436 191.958 31.382 191.91 31.298C191.874 31.202 191.85 31.142 191.838 31.118C190.914 29.27 190.002 26.828 189.102 23.792C189.066 23.696 189.048 23.612 189.048 23.54C189.048 23.276 189.234 23.144 189.606 23.144ZM206.093 19.796H213.653C213.977 19.796 214.235 19.892 214.427 20.084C214.619 20.276 214.715 20.528 214.715 20.84V21.218C214.715 21.482 214.337 22.034 213.581 22.874C212.837 23.702 211.667 25.022 210.071 26.834C208.475 28.634 207.371 29.876 206.759 30.56V30.758H213.923C214.163 30.758 214.337 30.812 214.445 30.92C214.553 31.016 214.607 31.184 214.607 31.424C214.607 31.652 214.553 31.808 214.445 31.892C214.349 31.964 214.175 32 213.923 32H206.093C205.769 32 205.517 31.91 205.337 31.73C205.157 31.55 205.067 31.304 205.067 30.992V30.758C205.067 30.398 205.379 29.858 206.003 29.138C206.639 28.406 207.359 27.596 208.163 26.708C210.167 24.476 211.781 22.664 213.005 21.272V21.038H206.093C205.853 21.038 205.685 20.996 205.589 20.912C205.493 20.816 205.445 20.648 205.445 20.408C205.445 20.168 205.493 20.006 205.589 19.922C205.685 19.838 205.853 19.796 206.093 19.796ZM220.518 22.982C223.062 22.982 224.334 24.164 224.334 26.528V30.092C224.334 30.752 224.586 31.172 225.09 31.352C224.91 31.808 224.574 32.036 224.082 32.036C223.722 32.036 223.434 31.91 223.218 31.658C223.014 31.394 222.912 31.052 222.912 30.632C222.156 31.64 221.178 32.144 219.978 32.144C219.006 32.144 218.238 31.898 217.674 31.406C217.122 30.902 216.846 30.23 216.846 29.39C216.846 28.538 217.17 27.848 217.818 27.32C218.478 26.792 219.366 26.528 220.482 26.528C221.154 26.528 221.718 26.6 222.174 26.744C222.546 26.876 222.768 26.96 222.84 26.996V26.204C222.84 25.472 222.654 24.956 222.282 24.656C221.91 24.344 221.346 24.188 220.59 24.188C219.522 24.188 218.694 24.596 218.106 25.412C217.602 25.34 217.35 25.106 217.35 24.71C217.35 24.254 217.662 23.852 218.286 23.504C218.91 23.156 219.654 22.982 220.518 22.982ZM222.84 28.148C222.084 27.812 221.34 27.644 220.608 27.644C219.876 27.644 219.312 27.8 218.916 28.112C218.52 28.424 218.322 28.832 218.322 29.336C218.322 29.828 218.49 30.224 218.826 30.524C219.174 30.812 219.678 30.956 220.338 30.956C221.01 30.956 221.592 30.716 222.084 30.236C222.588 29.756 222.84 29.174 222.84 28.49V28.148ZM227.703 19.382H227.811C228.051 19.382 228.225 19.436 228.333 19.544C228.441 19.652 228.495 19.826 228.495 20.066V26.672C229.203 26.18 229.881 25.622 230.529 24.998C231.189 24.374 231.687 23.906 232.023 23.594C232.371 23.282 232.677 23.126 232.941 23.126H233.445C233.589 23.126 233.703 23.168 233.787 23.252C233.883 23.324 233.931 23.414 233.931 23.522C233.931 23.918 232.599 25.058 229.935 26.942C230.571 27.446 231.303 28.142 232.131 29.03C232.971 29.918 233.631 30.686 234.111 31.334C234.183 31.442 234.219 31.544 234.219 31.64C234.219 31.88 234.069 32 233.769 32H233.337C232.953 32 232.677 31.886 232.509 31.658C231.237 29.99 229.899 28.58 228.495 27.428V31.316C228.495 31.556 228.441 31.73 228.333 31.838C228.225 31.946 228.051 32 227.811 32H227.703C227.463 32 227.289 31.946 227.181 31.838C227.073 31.73 227.019 31.556 227.019 31.316V20.066C227.019 19.826 227.073 19.652 227.181 19.544C227.289 19.436 227.463 19.382 227.703 19.382ZM236.089 27.662C235.945 27.758 235.795 27.806 235.639 27.806C235.483 27.806 235.333 27.722 235.189 27.554C235.045 27.386 234.973 27.212 234.973 27.032C234.973 26.852 235.087 26.684 235.315 26.528L238.807 24.008C238.963 23.9 239.107 23.846 239.239 23.846C239.383 23.846 239.527 23.924 239.671 24.08C239.827 24.236 239.899 24.416 239.887 24.62C239.875 24.812 239.779 24.974 239.599 25.106L236.089 27.662ZM237.277 19.184H237.403C237.859 19.184 238.087 19.406 238.087 19.85V31.118C238.087 31.574 237.859 31.802 237.403 31.802H237.277C237.025 31.802 236.845 31.748 236.737 31.64C236.641 31.532 236.593 31.358 236.593 31.118V19.85C236.593 19.61 236.641 19.442 236.737 19.346C236.845 19.238 237.025 19.184 237.277 19.184ZM244.178 22.982C246.722 22.982 247.994 24.164 247.994 26.528V30.092C247.994 30.752 248.246 31.172 248.75 31.352C248.57 31.808 248.234 32.036 247.742 32.036C247.382 32.036 247.094 31.91 246.878 31.658C246.674 31.394 246.572 31.052 246.572 30.632C245.816 31.64 244.838 32.144 243.638 32.144C242.666 32.144 241.898 31.898 241.334 31.406C240.782 30.902 240.506 30.23 240.506 29.39C240.506 28.538 240.83 27.848 241.478 27.32C242.138 26.792 243.026 26.528 244.142 26.528C244.814 26.528 245.378 26.6 245.834 26.744C246.206 26.876 246.428 26.96 246.5 26.996V26.204C246.5 25.472 246.314 24.956 245.942 24.656C245.57 24.344 245.006 24.188 244.25 24.188C243.182 24.188 242.354 24.596 241.766 25.412C241.262 25.34 241.01 25.106 241.01 24.71C241.01 24.254 241.322 23.852 241.946 23.504C242.57 23.156 243.314 22.982 244.178 22.982ZM246.5 28.148C245.744 27.812 245 27.644 244.268 27.644C243.536 27.644 242.972 27.8 242.576 28.112C242.18 28.424 241.982 28.832 241.982 29.336C241.982 29.828 242.15 30.224 242.486 30.524C242.834 30.812 243.338 30.956 243.998 30.956C244.67 30.956 245.252 30.716 245.744 30.236C246.248 29.756 246.5 29.174 246.5 28.49V28.148ZM257.393 19.022H257.537C257.993 19.022 258.221 19.238 258.221 19.67V31.352C258.221 31.784 257.993 32 257.537 32H257.393C256.937 32 256.709 31.796 256.709 31.388V30.506C256.445 30.974 256.067 31.364 255.575 31.676C255.083 31.976 254.525 32.126 253.901 32.126C252.833 32.126 251.951 31.76 251.255 31.028C250.559 30.296 250.211 29.174 250.211 27.662C250.211 26.138 250.595 24.974 251.363 24.17C252.131 23.354 253.109 22.946 254.297 22.946C255.233 22.946 256.037 23.222 256.709 23.774V19.67C256.709 19.238 256.937 19.022 257.393 19.022ZM256.709 25.25C256.073 24.59 255.311 24.26 254.423 24.26C253.535 24.26 252.857 24.548 252.389 25.124C251.921 25.688 251.687 26.54 251.687 27.68C251.687 28.82 251.927 29.642 252.407 30.146C252.887 30.65 253.523 30.902 254.315 30.902C255.119 30.902 255.719 30.602 256.115 30.002C256.511 29.402 256.709 28.658 256.709 27.77V25.25ZM270.095 20.012C270.779 19.76 271.493 19.634 272.237 19.634C272.981 19.634 273.689 19.76 274.361 20.012C275.033 20.252 275.651 20.612 276.215 21.092C276.791 21.572 277.247 22.232 277.583 23.072C277.931 23.9 278.105 24.848 278.105 25.916C278.105 26.972 277.931 27.914 277.583 28.742C277.247 29.558 276.791 30.206 276.215 30.686C275.651 31.166 275.033 31.532 274.361 31.784C273.689 32.024 272.981 32.144 272.237 32.144C271.493 32.144 270.779 32.024 270.095 31.784C269.423 31.532 268.799 31.166 268.223 30.686C267.659 30.206 267.209 29.558 266.873 28.742C266.537 27.914 266.369 26.972 266.369 25.916C266.369 24.848 266.537 23.9 266.873 23.072C267.209 22.232 267.659 21.572 268.223 21.092C268.799 20.612 269.423 20.252 270.095 20.012ZM275.261 22.28C274.421 21.44 273.413 21.02 272.237 21.02C271.061 21.02 270.047 21.44 269.195 22.28C268.355 23.12 267.935 24.326 267.935 25.898C267.935 27.458 268.355 28.658 269.195 29.498C270.047 30.338 271.061 30.758 272.237 30.758C273.413 30.758 274.421 30.338 275.261 29.498C276.113 28.658 276.539 27.458 276.539 25.898C276.539 24.326 276.113 23.12 275.261 22.28ZM281.104 23.126H281.23C281.686 23.126 281.914 23.336 281.914 23.756V24.458C282.166 24.038 282.544 23.684 283.048 23.396C283.552 23.108 284.098 22.964 284.686 22.964C285.802 22.964 286.702 23.342 287.386 24.098C288.082 24.842 288.43 25.982 288.43 27.518C288.43 29.042 288.022 30.194 287.206 30.974C286.402 31.754 285.412 32.144 284.236 32.144C283.432 32.144 282.658 31.94 281.914 31.532V35.402C281.914 35.846 281.686 36.068 281.23 36.068H281.104C280.648 36.068 280.42 35.846 280.42 35.402V23.792C280.42 23.348 280.648 23.126 281.104 23.126ZM286.936 27.5C286.936 26.36 286.696 25.532 286.216 25.016C285.736 24.488 285.088 24.224 284.272 24.224C283.456 24.224 282.856 24.584 282.472 25.304C282.1 26.024 281.914 26.96 281.914 28.112V30.362C282.034 30.446 282.328 30.56 282.796 30.704C283.276 30.836 283.756 30.902 284.236 30.902C285.04 30.902 285.688 30.62 286.18 30.056C286.684 29.492 286.936 28.64 286.936 27.5ZM291.694 23.126H291.802C292.258 23.126 292.486 23.348 292.486 23.792V31.316C292.486 31.772 292.258 32 291.802 32H291.694C291.238 32 291.01 31.772 291.01 31.316V23.792C291.01 23.348 291.238 23.126 291.694 23.126ZM290.758 20.588C290.758 20.312 290.854 20.078 291.046 19.886C291.238 19.682 291.466 19.58 291.73 19.58C292.006 19.58 292.24 19.682 292.432 19.886C292.636 20.078 292.738 20.312 292.738 20.588C292.738 20.852 292.642 21.086 292.45 21.29C292.258 21.482 292.024 21.578 291.748 21.578C291.472 21.578 291.238 21.482 291.046 21.29C290.854 21.098 290.758 20.864 290.758 20.588ZM294.857 27.59C294.857 26.09 295.277 24.944 296.117 24.152C296.957 23.36 297.923 22.964 299.015 22.964C300.107 22.964 300.971 23.246 301.607 23.81C302.243 24.362 302.561 25.052 302.561 25.88C302.561 26.708 302.231 27.356 301.571 27.824C300.923 28.28 300.083 28.508 299.051 28.508C298.019 28.508 297.089 28.346 296.261 28.022C296.261 28.898 296.561 29.606 297.161 30.146C297.761 30.674 298.493 30.938 299.357 30.938C300.701 30.938 301.541 30.524 301.877 29.696C302.081 29.696 302.255 29.756 302.399 29.876C302.543 29.984 302.615 30.146 302.615 30.362C302.615 30.782 302.303 31.184 301.679 31.568C301.067 31.952 300.287 32.144 299.339 32.144C298.067 32.144 296.999 31.76 296.135 30.992C295.283 30.224 294.857 29.09 294.857 27.59ZM301.193 25.826C301.193 25.358 300.989 24.962 300.581 24.638C300.185 24.314 299.633 24.152 298.925 24.152C298.229 24.152 297.617 24.434 297.089 24.998C296.561 25.562 296.291 26.198 296.279 26.906C297.143 27.194 298.001 27.338 298.853 27.338C300.413 27.338 301.193 26.834 301.193 25.826ZM305.398 19.382H305.506C305.746 19.382 305.92 19.436 306.028 19.544C306.136 19.652 306.19 19.826 306.19 20.066V26.672C306.898 26.18 307.576 25.622 308.224 24.998C308.884 24.374 309.382 23.906 309.718 23.594C310.066 23.282 310.372 23.126 310.636 23.126H311.14C311.284 23.126 311.398 23.168 311.482 23.252C311.578 23.324 311.626 23.414 311.626 23.522C311.626 23.918 310.294 25.058 307.63 26.942C308.266 27.446 308.998 28.142 309.826 29.03C310.666 29.918 311.326 30.686 311.806 31.334C311.878 31.442 311.914 31.544 311.914 31.64C311.914 31.88 311.764 32 311.464 32H311.032C310.648 32 310.372 31.886 310.204 31.658C308.932 29.99 307.594 28.58 306.19 27.428V31.316C306.19 31.556 306.136 31.73 306.028 31.838C305.92 31.946 305.746 32 305.506 32H305.398C305.158 32 304.984 31.946 304.876 31.838C304.768 31.73 304.714 31.556 304.714 31.316V20.066C304.714 19.826 304.768 19.652 304.876 19.544C304.984 19.436 305.158 19.382 305.398 19.382ZM314.756 23.126H314.864C315.32 23.126 315.548 23.348 315.548 23.792V31.316C315.548 31.772 315.32 32 314.864 32H314.756C314.3 32 314.072 31.772 314.072 31.316V23.792C314.072 23.348 314.3 23.126 314.756 23.126ZM313.82 20.588C313.82 20.312 313.916 20.078 314.108 19.886C314.3 19.682 314.528 19.58 314.792 19.58C315.068 19.58 315.302 19.682 315.494 19.886C315.698 20.078 315.8 20.312 315.8 20.588C315.8 20.852 315.704 21.086 315.512 21.29C315.32 21.482 315.086 21.578 314.81 21.578C314.534 21.578 314.3 21.482 314.108 21.29C313.916 21.098 313.82 20.864 313.82 20.588ZM325.396 19.796H332.956C333.28 19.796 333.538 19.892 333.73 20.084C333.922 20.276 334.018 20.528 334.018 20.84V21.218C334.018 21.482 333.64 22.034 332.884 22.874C332.14 23.702 330.97 25.022 329.374 26.834C327.778 28.634 326.674 29.876 326.062 30.56V30.758H333.226C333.466 30.758 333.64 30.812 333.748 30.92C333.856 31.016 333.91 31.184 333.91 31.424C333.91 31.652 333.856 31.808 333.748 31.892C333.652 31.964 333.478 32 333.226 32H325.396C325.072 32 324.82 31.91 324.64 31.73C324.46 31.55 324.37 31.304 324.37 30.992V30.758C324.37 30.398 324.682 29.858 325.306 29.138C325.942 28.406 326.662 27.596 327.466 26.708C329.47 24.476 331.084 22.664 332.308 21.272V21.038H325.396C325.156 21.038 324.988 20.996 324.892 20.912C324.796 20.816 324.748 20.648 324.748 20.408C324.748 20.168 324.796 20.006 324.892 19.922C324.988 19.838 325.156 19.796 325.396 19.796ZM343.42 19.022H343.564C344.02 19.022 344.248 19.238 344.248 19.67V31.352C344.248 31.784 344.02 32 343.564 32H343.42C342.964 32 342.736 31.796 342.736 31.388V30.506C342.472 30.974 342.094 31.364 341.602 31.676C341.11 31.976 340.552 32.126 339.928 32.126C338.86 32.126 337.978 31.76 337.282 31.028C336.586 30.296 336.238 29.174 336.238 27.662C336.238 26.138 336.622 24.974 337.39 24.17C338.158 23.354 339.136 22.946 340.324 22.946C341.26 22.946 342.064 23.222 342.736 23.774V19.67C342.736 19.238 342.964 19.022 343.42 19.022ZM342.736 25.25C342.1 24.59 341.338 24.26 340.45 24.26C339.562 24.26 338.884 24.548 338.416 25.124C337.948 25.688 337.714 26.54 337.714 27.68C337.714 28.82 337.954 29.642 338.434 30.146C338.914 30.65 339.55 30.902 340.342 30.902C341.146 30.902 341.746 30.602 342.142 30.002C342.538 29.402 342.736 28.658 342.736 27.77V25.25ZM347.62 23.126H347.728C348.184 23.126 348.412 23.348 348.412 23.792V24.764C348.616 24.308 348.94 23.9 349.384 23.54C349.84 23.18 350.326 23 350.842 23C351.358 23 351.748 23.102 352.012 23.306C352.288 23.51 352.426 23.762 352.426 24.062C352.426 24.35 352.3 24.578 352.048 24.746C351.676 24.434 351.28 24.278 350.86 24.278C350.116 24.278 349.528 24.584 349.096 25.196C348.664 25.796 348.448 26.552 348.448 27.464V31.316C348.448 31.556 348.394 31.73 348.286 31.838C348.178 31.946 348.004 32 347.764 32H347.62C347.38 32 347.206 31.946 347.098 31.838C346.99 31.73 346.936 31.556 346.936 31.316V23.792C346.936 23.348 347.164 23.126 347.62 23.126ZM354.793 24.17C355.645 23.366 356.689 22.964 357.925 22.964C359.161 22.964 360.205 23.366 361.057 24.17C361.909 24.974 362.335 26.108 362.335 27.572C362.335 29.036 361.909 30.164 361.057 30.956C360.205 31.748 359.161 32.144 357.925 32.144C356.689 32.144 355.645 31.748 354.793 30.956C353.941 30.164 353.515 29.036 353.515 27.572C353.515 26.108 353.941 24.974 354.793 24.17ZM359.995 25.088C359.467 24.5 358.777 24.206 357.925 24.206C357.073 24.206 356.377 24.5 355.837 25.088C355.309 25.664 355.045 26.492 355.045 27.572C355.045 28.64 355.309 29.468 355.837 30.056C356.377 30.632 357.073 30.92 357.925 30.92C358.777 30.92 359.467 30.632 359.995 30.056C360.535 29.468 360.805 28.64 360.805 27.572C360.805 26.492 360.535 25.664 359.995 25.088ZM364.229 23.144H364.517C364.865 23.144 365.081 23.33 365.165 23.702C365.969 26.954 366.593 29.282 367.037 30.686H367.253C367.349 30.278 367.613 29.246 368.045 27.59C368.477 25.922 368.801 24.626 369.017 23.702C369.101 23.33 369.335 23.144 369.719 23.144H369.989C370.373 23.144 370.607 23.33 370.691 23.702C370.895 24.59 371.207 25.826 371.627 27.41C372.059 28.994 372.347 30.086 372.491 30.686H372.707C373.115 29.402 373.505 27.986 373.877 26.438C374.249 24.89 374.471 23.978 374.543 23.702C374.627 23.33 374.843 23.144 375.191 23.144H375.479C375.875 23.144 376.073 23.276 376.073 23.54C376.073 23.588 376.037 23.738 375.965 23.99C375.905 24.242 375.767 24.782 375.551 25.61C375.347 26.438 375.179 27.092 375.047 27.572C374.675 28.904 374.297 30.086 373.913 31.118C373.685 31.706 373.271 32 372.671 32H372.509C372.173 32 371.927 31.934 371.771 31.802C371.615 31.658 371.489 31.43 371.393 31.118C370.685 28.742 370.187 26.684 369.899 24.944H369.791C369.455 26.96 368.975 29.018 368.351 31.118C368.255 31.43 368.129 31.658 367.973 31.802C367.817 31.934 367.571 32 367.235 32H367.073C366.473 32 366.065 31.718 365.849 31.154C365.633 30.59 365.411 29.96 365.183 29.264C364.967 28.556 364.805 28.004 364.697 27.608C364.589 27.212 364.403 26.528 364.139 25.556C363.803 24.272 363.635 23.6 363.635 23.54C363.635 23.276 363.833 23.144 364.229 23.144ZM378.646 24.17C379.498 23.366 380.542 22.964 381.778 22.964C383.014 22.964 384.058 23.366 384.91 24.17C385.762 24.974 386.188 26.108 386.188 27.572C386.188 29.036 385.762 30.164 384.91 30.956C384.058 31.748 383.014 32.144 381.778 32.144C380.542 32.144 379.498 31.748 378.646 30.956C377.794 30.164 377.368 29.036 377.368 27.572C377.368 26.108 377.794 24.974 378.646 24.17ZM383.848 25.088C383.32 24.5 382.63 24.206 381.778 24.206C380.926 24.206 380.23 24.5 379.69 25.088C379.162 25.664 378.898 26.492 378.898 27.572C378.898 28.64 379.162 29.468 379.69 30.056C380.23 30.632 380.926 30.92 381.778 30.92C382.63 30.92 383.32 30.632 383.848 30.056C384.388 29.468 384.658 28.64 384.658 27.572C384.658 26.492 384.388 25.664 383.848 25.088ZM389.72 20.732H389.846C390.302 20.732 390.53 20.954 390.53 21.398V23.18H393.014C393.482 23.18 393.716 23.384 393.716 23.792C393.716 24.2 393.482 24.404 393.014 24.404H390.53V28.94C390.53 29.696 390.674 30.23 390.962 30.542C391.262 30.842 391.694 30.992 392.258 30.992C392.834 30.992 393.26 30.854 393.536 30.578C393.836 30.674 393.986 30.866 393.986 31.154C393.986 31.442 393.788 31.682 393.392 31.874C392.996 32.054 392.522 32.144 391.97 32.144C390.014 32.144 389.036 31.076 389.036 28.94V24.404H388.154C387.89 24.404 387.698 24.362 387.578 24.278C387.458 24.194 387.398 24.032 387.398 23.792C387.398 23.384 387.65 23.18 388.154 23.18H389.036V21.398C389.036 20.954 389.264 20.732 389.72 20.732ZM396.171 23.126H396.297C396.753 23.126 396.981 23.354 396.981 23.81V24.692C397.209 24.236 397.569 23.834 398.061 23.486C398.553 23.138 399.117 22.964 399.753 22.964C400.725 22.964 401.517 23.258 402.129 23.846C402.753 24.422 403.065 25.34 403.065 26.6V31.316C403.065 31.556 403.011 31.73 402.903 31.838C402.795 31.946 402.621 32 402.381 32H402.237C401.793 32 401.571 31.772 401.571 31.316V26.654C401.571 25.778 401.385 25.154 401.013 24.782C400.641 24.41 400.101 24.224 399.393 24.224C398.685 24.224 398.109 24.512 397.665 25.088C397.221 25.664 396.999 26.426 396.999 27.374V31.316C396.999 31.772 396.765 32 396.297 32H396.171C395.931 32 395.757 31.946 395.649 31.838C395.541 31.73 395.487 31.556 395.487 31.316V23.81C395.487 23.354 395.715 23.126 396.171 23.126ZM404.948 27.59C404.948 26.09 405.368 24.944 406.208 24.152C407.048 23.36 408.014 22.964 409.106 22.964C410.198 22.964 411.062 23.246 411.698 23.81C412.334 24.362 412.652 25.052 412.652 25.88C412.652 26.708 412.322 27.356 411.662 27.824C411.014 28.28 410.174 28.508 409.142 28.508C408.11 28.508 407.18 28.346 406.352 28.022C406.352 28.898 406.652 29.606 407.252 30.146C407.852 30.674 408.584 30.938 409.448 30.938C410.792 30.938 411.632 30.524 411.968 29.696C412.172 29.696 412.346 29.756 412.49 29.876C412.634 29.984 412.706 30.146 412.706 30.362C412.706 30.782 412.394 31.184 411.77 31.568C411.158 31.952 410.378 32.144 409.43 32.144C408.158 32.144 407.09 31.76 406.226 30.992C405.374 30.224 404.948 29.09 404.948 27.59ZM411.284 25.826C411.284 25.358 411.08 24.962 410.672 24.638C410.276 24.314 409.724 24.152 409.016 24.152C408.32 24.152 407.708 24.434 407.18 24.998C406.652 25.562 406.382 26.198 406.37 26.906C407.234 27.194 408.092 27.338 408.944 27.338C410.504 27.338 411.284 26.834 411.284 25.826ZM416.12 23.144H416.228C416.684 23.144 416.912 23.366 416.912 23.81V31.604C416.912 32.996 416.696 34.034 416.264 34.718C415.844 35.414 415.112 35.762 414.068 35.762C413.468 35.762 413.024 35.666 412.736 35.474C412.448 35.294 412.304 35.042 412.304 34.718C412.304 34.394 412.454 34.136 412.754 33.944C412.826 34.052 412.994 34.16 413.258 34.268C413.522 34.388 413.798 34.448 414.086 34.448C414.626 34.448 414.98 34.22 415.148 33.764C415.328 33.32 415.418 32.6 415.418 31.604V23.81C415.418 23.366 415.652 23.144 416.12 23.144ZM415.184 20.606C415.184 20.33 415.28 20.096 415.472 19.904C415.664 19.7 415.892 19.598 416.156 19.598C416.432 19.598 416.666 19.7 416.858 19.904C417.05 20.096 417.146 20.33 417.146 20.606C417.146 20.87 417.05 21.098 416.858 21.29C416.666 21.482 416.432 21.578 416.156 21.578C415.892 21.578 415.664 21.482 415.472 21.29C415.28 21.098 415.184 20.87 415.184 20.606Z" fill="#2169D6"/>
<path d="M143.485 52.22C145.57 52.22 147.406 52.5487 148.993 53.206C150.602 53.8407 151.996 54.7813 153.175 56.028L150.353 59.802C149.378 58.782 148.324 58.0227 147.191 57.524C146.08 57.0027 144.811 56.742 143.383 56.742C142.136 56.742 141.241 56.946 140.697 57.354C140.153 57.762 139.881 58.2607 139.881 58.85C139.881 59.326 140.096 59.734 140.527 60.074C140.98 60.3913 141.706 60.6633 142.703 60.89L146.477 61.74C148.721 62.2613 150.364 63.0207 151.407 64.018C152.45 65.0153 152.971 66.3413 152.971 67.996C152.971 69.5827 152.563 70.9313 151.747 72.042C150.931 73.13 149.809 73.9573 148.381 74.524C146.953 75.068 145.321 75.34 143.485 75.34C141.218 75.34 139.144 74.9773 137.263 74.252C135.382 73.504 133.886 72.5293 132.775 71.328L135.597 67.418C136.436 68.3927 137.569 69.2087 138.997 69.866C140.425 70.5007 141.898 70.818 143.417 70.818C145.774 70.818 146.953 70.1267 146.953 68.744C146.953 68.268 146.772 67.8713 146.409 67.554C146.069 67.214 145.434 66.9307 144.505 66.704L140.357 65.786C139.088 65.514 137.954 65.1287 136.957 64.63C135.982 64.1313 135.212 63.474 134.645 62.658C134.078 61.8193 133.795 60.7767 133.795 59.53C133.795 58.1247 134.18 56.878 134.951 55.79C135.722 54.6793 136.832 53.8067 138.283 53.172C139.734 52.5373 141.468 52.22 143.485 52.22ZM175.565 52.56V65.854C175.565 72.178 172.222 75.34 165.535 75.34C162.248 75.34 159.755 74.558 158.055 72.994C156.355 71.4073 155.505 69.0273 155.505 65.854V52.56H161.387V65.956C161.387 69.152 162.77 70.75 165.535 70.75C168.323 70.75 169.717 69.152 169.717 65.956V52.56H175.565ZM189.708 52.56C192.428 52.56 194.547 53.2173 196.066 54.532C197.607 55.824 198.378 57.66 198.378 60.04C198.378 62.42 197.607 64.2673 196.066 65.582C194.547 66.874 192.428 67.52 189.708 67.52H185.254V75H179.406V52.56H189.708ZM188.79 63.134C191.26 63.134 192.496 62.1027 192.496 60.04C192.496 57.9773 191.26 56.946 188.79 56.946H185.254V63.134H188.79ZM201.437 75V52.56H218.913V57.082H207.285V61.638H216.533V65.888H207.285V70.478H219.355V75H201.437ZM232.916 52.56C235.59 52.56 237.664 53.1833 239.138 54.43C240.634 55.6767 241.382 57.354 241.382 59.462C241.382 61.1393 240.985 62.522 240.192 63.61C239.421 64.6753 238.31 65.4573 236.86 65.956L242.708 75H236.248L231.454 66.806H227.952V75H222.206V52.56H232.916ZM232.1 62.658C233.233 62.658 234.083 62.4313 234.65 61.978C235.216 61.5247 235.5 60.7993 235.5 59.802C235.5 57.9207 234.366 56.98 232.1 56.98H227.952V62.658H232.1ZM244.967 75V52.56H255.881C258.647 52.56 260.687 53.0813 262.001 54.124C263.316 55.1667 263.973 56.6627 263.973 58.612C263.973 59.8813 263.599 60.9807 262.851 61.91C262.103 62.8393 260.959 63.4173 259.417 63.644V63.678C261.14 63.9047 262.421 64.5053 263.259 65.48C264.121 66.432 264.551 67.588 264.551 68.948C264.551 70.8747 263.86 72.3707 262.477 73.436C261.117 74.4787 259.089 75 256.391 75H244.967ZM250.611 61.74H254.861C256.947 61.74 257.989 60.924 257.989 59.292C257.989 57.66 256.947 56.844 254.861 56.844H250.611V61.74ZM250.611 70.886H255.405C257.513 70.886 258.567 70.0473 258.567 68.37C258.567 66.738 257.513 65.922 255.405 65.922H250.611V70.886ZM280.245 63.542V68.268H267.801V63.542H280.245ZM310.788 52.56V75H305.62V64.698L305.79 57.796H305.722L300.18 75H295.454L289.912 57.796H289.844L290.014 64.698V75H284.812V52.56H293.142L296.678 63.984L297.936 68.744H298.004L299.296 64.018L302.798 52.56H310.788ZM315.078 75V52.56H332.554V57.082H320.926V61.638H330.174V65.888H320.926V70.478H332.996V75H315.078ZM345.367 52.56C348.88 52.56 351.566 53.5347 353.425 55.484C355.306 57.4333 356.247 60.1987 356.247 63.78C356.247 67.3613 355.306 70.1267 353.425 72.076C351.566 74.0253 348.88 75 345.367 75H335.847V52.56H345.367ZM344.789 70.58C346.693 70.58 348.075 70.0133 348.937 68.88C349.821 67.724 350.263 66.024 350.263 63.78C350.263 61.536 349.821 59.8473 348.937 58.714C348.075 57.558 346.693 56.98 344.789 56.98H341.695V70.58H344.789Z" fill="#1C4ECD"/>
<path d="M148.993 53.206L148.61 54.1299L148.618 54.1331L148.626 54.1363L148.993 53.206ZM153.175 56.028L153.976 56.6268L154.48 55.9527L153.902 55.341L153.175 56.028ZM150.353 59.802L149.63 60.4929L150.446 61.3471L151.154 60.4008L150.353 59.802ZM147.191 57.524L146.766 58.4292L146.777 58.4344L146.788 58.4393L147.191 57.524ZM140.697 57.354L140.097 56.554L140.097 56.554L140.697 57.354ZM140.527 60.074L139.907 60.8589L139.93 60.8767L139.953 60.8932L140.527 60.074ZM142.703 60.89L142.481 61.8651L142.483 61.8656L142.703 60.89ZM146.477 61.74L146.703 60.7659L146.697 60.7644L146.477 61.74ZM151.747 72.042L152.547 72.642L152.553 72.6341L151.747 72.042ZM148.381 74.524L148.737 75.4586L148.75 75.4535L148.381 74.524ZM137.263 74.252L136.893 75.1813L136.903 75.1851L137.263 74.252ZM132.775 71.328L131.964 70.7428L131.485 71.4061L132.041 72.0069L132.775 71.328ZM135.597 67.418L136.355 66.7658L135.528 65.8047L134.786 66.8328L135.597 67.418ZM138.997 69.866L138.579 70.7745L138.591 70.7798L138.997 69.866ZM146.409 67.554L145.702 68.2611L145.725 68.2847L145.75 68.3066L146.409 67.554ZM144.505 66.704L144.742 65.7325L144.731 65.7299L144.721 65.7276L144.505 66.704ZM140.357 65.786L140.573 64.8096L140.566 64.8082L140.357 65.786ZM136.957 64.63L136.501 65.5203L136.51 65.5244L136.957 64.63ZM134.645 62.658L133.816 63.2179L133.824 63.2284L134.645 62.658ZM134.951 55.79L135.767 56.368L135.772 56.3601L134.951 55.79ZM138.283 53.172L137.882 52.2558L137.882 52.2558L138.283 53.172ZM143.485 53.22C145.466 53.22 147.168 53.5323 148.61 54.1299L149.376 52.2821C147.645 51.565 145.674 51.22 143.485 51.22V53.22ZM148.626 54.1363C150.1 54.7177 151.371 55.5757 152.448 56.715L153.902 55.341C152.621 53.9869 151.104 52.9637 149.36 52.2757L148.626 54.1363ZM152.374 55.4292L149.552 59.2032L151.154 60.4008L153.976 56.6268L152.374 55.4292ZM151.076 59.1111C150.023 58.0092 148.863 57.1672 147.594 56.6087L146.788 58.4393C147.785 58.8781 148.734 59.5548 149.63 60.4929L151.076 59.1111ZM147.616 56.6188C146.352 56.0256 144.934 55.742 143.383 55.742V57.742C144.688 57.742 145.808 57.9797 146.766 58.4292L147.616 56.6188ZM143.383 55.742C142.077 55.742 140.908 55.946 140.097 56.554L141.297 58.154C141.574 57.946 142.195 57.742 143.383 57.742V55.742ZM140.097 56.554C139.345 57.1178 138.881 57.8946 138.881 58.85H140.881C140.881 58.6267 140.961 58.4062 141.297 58.154L140.097 56.554ZM138.881 58.85C138.881 59.6812 139.278 60.3619 139.907 60.8589L141.147 59.2891C140.915 59.1061 140.881 58.9708 140.881 58.85H138.881ZM139.953 60.8932C140.568 61.3235 141.446 61.6299 142.481 61.8651L142.925 59.9149C141.965 59.6967 141.392 59.4592 141.1 59.2548L139.953 60.8932ZM142.483 61.8656L146.257 62.7156L146.697 60.7644L142.923 59.9144L142.483 61.8656ZM146.251 62.7141C148.414 63.2167 149.858 63.9205 150.716 64.7406L152.098 63.2954C150.87 62.1209 149.028 61.3059 146.703 60.7659L146.251 62.7141ZM150.716 64.7406C151.532 65.5211 151.971 66.5705 151.971 67.996H153.971C153.971 66.1122 153.368 64.5096 152.098 63.2954L150.716 64.7406ZM151.971 67.996C151.971 69.4031 151.612 70.5361 150.941 71.4499L152.553 72.6341C153.513 71.3266 153.971 69.7622 153.971 67.996H151.971ZM150.947 71.442C150.255 72.3641 149.291 73.0868 148.012 73.5945L148.75 75.4535C150.326 74.8279 151.606 73.8959 152.547 72.642L150.947 71.442ZM148.025 73.5895C146.731 74.0824 145.223 74.34 143.485 74.34V76.34C145.419 76.34 147.175 76.0536 148.737 75.4585L148.025 73.5895ZM143.485 74.34C141.326 74.34 139.376 73.9949 137.623 73.3189L136.903 75.1851C138.913 75.9598 141.11 76.34 143.485 76.34V74.34ZM137.632 73.3228C135.858 72.6171 134.497 71.7179 133.509 70.6491L132.041 72.0069C133.274 73.3407 134.906 74.3909 136.893 75.1812L137.632 73.3228ZM133.586 71.9132L136.408 68.0032L134.786 66.8328L131.964 70.7428L133.586 71.9132ZM134.839 68.0702C135.79 69.1751 137.049 70.0701 138.579 70.7744L139.415 68.9576C138.089 68.3472 137.082 67.6102 136.355 66.7658L134.839 68.0702ZM138.591 70.7798C140.143 71.4696 141.754 71.818 143.417 71.818V69.818C142.042 69.818 140.707 69.5317 139.403 68.9522L138.591 70.7798ZM143.417 71.818C144.661 71.818 145.758 71.6414 146.575 71.1621C147.475 70.6343 147.953 69.7849 147.953 68.744H145.953C145.953 69.0857 145.842 69.2734 145.563 69.4369C145.202 69.6489 144.531 69.818 143.417 69.818V71.818ZM147.953 68.744C147.953 67.9756 147.644 67.3059 147.067 66.8014L145.75 68.3066C145.899 68.4367 145.953 68.5604 145.953 68.744H147.953ZM147.116 66.8469C146.571 66.3019 145.704 65.9673 144.742 65.7325L144.268 67.6755C145.164 67.8941 145.567 68.1261 145.702 68.2611L147.116 66.8469ZM144.721 65.7276L140.573 64.8096L140.141 66.7624L144.289 67.6804L144.721 65.7276ZM140.566 64.8082C139.366 64.551 138.315 64.191 137.404 63.7356L136.51 65.5244C137.594 66.0664 138.809 66.477 140.147 66.7638L140.566 64.8082ZM137.412 63.7398C136.569 63.3082 135.93 62.7551 135.466 62.0876L133.824 63.2284C134.493 64.1929 135.396 64.9545 136.501 65.5202L137.412 63.7398ZM135.473 62.0981C135.042 61.4596 134.795 60.6237 134.795 59.53H132.795C132.795 60.9296 133.114 62.1791 133.816 63.2179L135.473 62.0981ZM134.795 59.53C134.795 58.3199 135.123 57.2776 135.767 56.368L134.135 55.212C133.238 56.4784 132.795 57.9295 132.795 59.53H134.795ZM135.772 56.3601C136.421 55.4259 137.373 54.6615 138.684 54.0882L137.882 52.2558C136.291 52.9518 135.022 53.9328 134.129 55.2199L135.772 56.3601ZM138.684 54.0882C139.978 53.5217 141.569 53.22 143.485 53.22V51.22C141.366 51.22 139.489 51.5529 137.882 52.2558L138.684 54.0882ZM175.565 52.56H176.565V51.56H175.565V52.56ZM158.055 72.994L157.373 73.7251L157.378 73.7299L158.055 72.994ZM155.505 52.56V51.56H154.505V52.56H155.505ZM161.387 52.56H162.387V51.56H161.387V52.56ZM169.717 52.56V51.56H168.717V52.56H169.717ZM174.565 52.56V65.854H176.565V52.56H174.565ZM174.565 65.854C174.565 68.8472 173.776 70.9121 172.37 72.242C170.954 73.5817 168.738 74.34 165.535 74.34V76.34C169.019 76.34 171.818 75.5173 173.745 73.695C175.682 71.8629 176.565 69.1848 176.565 65.854H174.565ZM165.535 74.34C162.393 74.34 160.182 73.5922 158.732 72.2581L157.378 73.7299C159.328 75.5238 162.103 76.34 165.535 76.34V74.34ZM158.737 72.2629C157.305 70.9266 156.505 68.8548 156.505 65.854H154.505C154.505 69.1998 155.404 71.888 157.373 73.7251L158.737 72.2629ZM156.505 65.854V52.56H154.505V65.854H156.505ZM155.505 53.56H161.387V51.56H155.505V53.56ZM160.387 52.56V65.956H162.387V52.56H160.387ZM160.387 65.956C160.387 67.6755 160.756 69.1519 161.668 70.2058C162.604 71.2875 163.957 71.75 165.535 71.75V69.75C164.347 69.75 163.627 69.4135 163.18 68.8972C162.709 68.3531 162.387 67.4325 162.387 65.956H160.387ZM165.535 71.75C167.121 71.75 168.483 71.289 169.425 70.2089C170.345 69.1548 170.717 67.6772 170.717 65.956H168.717C168.717 67.4308 168.392 68.3502 167.918 68.8941C167.466 69.412 166.737 69.75 165.535 69.75V71.75ZM170.717 65.956V52.56H168.717V65.956H170.717ZM169.717 53.56H175.565V51.56H169.717V53.56ZM196.066 54.532L195.411 55.2881L195.417 55.2933L195.423 55.2984L196.066 54.532ZM196.066 65.582L196.714 66.3437L196.715 66.3428L196.066 65.582ZM185.254 67.52V66.52H184.254V67.52H185.254ZM185.254 75V76H186.254V75H185.254ZM179.406 75H178.406V76H179.406V75ZM179.406 52.56V51.56H178.406V52.56H179.406ZM185.254 56.946V55.946H184.254V56.946H185.254ZM185.254 63.134H184.254V64.134H185.254V63.134ZM189.708 53.56C192.273 53.56 194.13 54.1789 195.411 55.2881L196.72 53.7759C194.964 52.2557 192.582 51.56 189.708 51.56V53.56ZM195.423 55.2984C196.696 56.3649 197.378 57.8957 197.378 60.04H199.378C199.378 57.4243 198.518 55.2831 196.708 53.7656L195.423 55.2984ZM197.378 60.04C197.378 62.1838 196.696 63.7304 195.417 64.8212L196.715 66.3428C198.518 64.8043 199.378 62.6562 199.378 60.04H197.378ZM195.418 64.8203C194.136 65.9104 192.277 66.52 189.708 66.52V68.52C192.579 68.52 194.958 67.8376 196.714 66.3437L195.418 64.8203ZM189.708 66.52H185.254V68.52H189.708V66.52ZM184.254 67.52V75H186.254V67.52H184.254ZM185.254 74H179.406V76H185.254V74ZM180.406 75V52.56H178.406V75H180.406ZM179.406 53.56H189.708V51.56H179.406V53.56ZM188.79 64.134C190.14 64.134 191.338 63.856 192.21 63.1281C193.116 62.3714 193.496 61.2777 193.496 60.04H191.496C191.496 60.865 191.257 61.3182 190.928 61.5929C190.565 61.8963 189.91 62.134 188.79 62.134V64.134ZM193.496 60.04C193.496 58.8023 193.116 57.7086 192.21 56.9519C191.338 56.224 190.14 55.946 188.79 55.946V57.946C189.91 57.946 190.565 58.1837 190.928 58.4871C191.257 58.7618 191.496 59.215 191.496 60.04H193.496ZM188.79 55.946H185.254V57.946H188.79V55.946ZM184.254 56.946V63.134H186.254V56.946H184.254ZM185.254 64.134H188.79V62.134H185.254V64.134ZM201.437 75H200.437V76H201.437V75ZM201.437 52.56V51.56H200.437V52.56H201.437ZM218.913 52.56H219.913V51.56H218.913V52.56ZM218.913 57.082V58.082H219.913V57.082H218.913ZM207.285 57.082V56.082H206.285V57.082H207.285ZM207.285 61.638H206.285V62.638H207.285V61.638ZM216.533 61.638H217.533V60.638H216.533V61.638ZM216.533 65.888V66.888H217.533V65.888H216.533ZM207.285 65.888V64.888H206.285V65.888H207.285ZM207.285 70.478H206.285V71.478H207.285V70.478ZM219.355 70.478H220.355V69.478H219.355V70.478ZM219.355 75V76H220.355V75H219.355ZM202.437 75V52.56H200.437V75H202.437ZM201.437 53.56H218.913V51.56H201.437V53.56ZM217.913 52.56V57.082H219.913V52.56H217.913ZM218.913 56.082H207.285V58.082H218.913V56.082ZM206.285 57.082V61.638H208.285V57.082H206.285ZM207.285 62.638H216.533V60.638H207.285V62.638ZM215.533 61.638V65.888H217.533V61.638H215.533ZM216.533 64.888H207.285V66.888H216.533V64.888ZM206.285 65.888V70.478H208.285V65.888H206.285ZM207.285 71.478H219.355V69.478H207.285V71.478ZM218.355 70.478V75H220.355V70.478H218.355ZM219.355 74H201.437V76H219.355V74ZM239.138 54.43L238.492 55.1934L238.498 55.1982L239.138 54.43ZM240.192 63.61L239.384 63.0208L239.382 63.0239L240.192 63.61ZM236.86 65.956L236.535 65.0103L235.326 65.4258L236.02 66.499L236.86 65.956ZM242.708 75V76H244.545L243.548 74.457L242.708 75ZM236.248 75L235.385 75.505L235.674 76H236.248V75ZM231.454 66.806L232.317 66.301L232.027 65.806H231.454V66.806ZM227.952 66.806V65.806H226.952V66.806H227.952ZM227.952 75V76H228.952V75H227.952ZM222.206 75H221.206V76H222.206V75ZM222.206 52.56V51.56H221.206V52.56H222.206ZM234.65 61.978L234.025 61.1971L234.025 61.1971L234.65 61.978ZM227.952 56.98V55.98H226.952V56.98H227.952ZM227.952 62.658H226.952V63.658H227.952V62.658ZM232.916 53.56C235.445 53.56 237.258 54.1494 238.492 55.1934L239.784 53.6666C238.071 52.2173 235.736 51.56 232.916 51.56V53.56ZM238.498 55.1982C239.745 56.2378 240.382 57.6229 240.382 59.462H242.382C242.382 57.0851 241.523 55.1156 239.778 53.6618L238.498 55.1982ZM240.382 59.462C240.382 60.9803 240.025 62.1421 239.384 63.0208L241 64.1992C241.946 62.9019 242.382 61.2984 242.382 59.462H240.382ZM239.382 63.0239C238.751 63.8957 237.824 64.5671 236.535 65.0103L237.185 66.9017C238.797 66.3475 240.091 65.455 241.002 64.1961L239.382 63.0239ZM236.02 66.499L241.868 75.543L243.548 74.457L237.7 65.413L236.02 66.499ZM242.708 74H236.248V76H242.708V74ZM237.111 74.495L232.317 66.301L230.591 67.311L235.385 75.505L237.111 74.495ZM231.454 65.806H227.952V67.806H231.454V65.806ZM226.952 66.806V75H228.952V66.806H226.952ZM227.952 74H222.206V76H227.952V74ZM223.206 75V52.56H221.206V75H223.206ZM222.206 53.56H232.916V51.56H222.206V53.56ZM232.1 63.658C233.34 63.658 234.455 63.4143 235.274 62.7589L234.025 61.1971C233.711 61.4483 233.126 61.658 232.1 61.658V63.658ZM235.274 62.7589C236.159 62.0514 236.5 60.9825 236.5 59.802H234.5C234.5 60.6161 234.274 60.9979 234.025 61.1971L235.274 62.7589ZM236.5 59.802C236.5 58.6531 236.145 57.6268 235.288 56.916C234.468 56.2349 233.347 55.98 232.1 55.98V57.98C233.12 57.98 233.698 58.1955 234.011 58.455C234.288 58.6849 234.5 59.0696 234.5 59.802H236.5ZM232.1 55.98H227.952V57.98H232.1V55.98ZM226.952 56.98V62.658H228.952V56.98H226.952ZM227.952 63.658H232.1V61.658H227.952V63.658ZM244.967 75H243.967V76H244.967V75ZM244.967 52.56V51.56H243.967V52.56H244.967ZM262.001 54.124L261.38 54.9075L261.38 54.9075L262.001 54.124ZM259.417 63.644L259.272 62.6546L258.417 62.7803V63.644H259.417ZM259.417 63.678H258.417V64.555L259.287 64.6695L259.417 63.678ZM263.259 65.48L262.501 66.1322L262.509 66.1417L262.518 66.1509L263.259 65.48ZM262.477 73.436L263.086 74.2296L263.088 74.2281L262.477 73.436ZM250.611 61.74H249.611V62.74H250.611V61.74ZM250.611 56.844V55.844H249.611V56.844H250.611ZM250.611 70.886H249.611V71.886H250.611V70.886ZM250.611 65.922V64.922H249.611V65.922H250.611ZM245.967 75V52.56H243.967V75H245.967ZM244.967 53.56H255.881V51.56H244.967V53.56ZM255.881 53.56C258.556 53.56 260.324 54.0705 261.38 54.9075L262.623 53.3405C261.049 52.0922 258.738 51.56 255.881 51.56V53.56ZM261.38 54.9075C262.415 55.7285 262.973 56.9124 262.973 58.612H264.973C264.973 56.4129 264.217 54.6049 262.623 53.3405L261.38 54.9075ZM262.973 58.612C262.973 59.6689 262.668 60.5432 262.072 61.283L263.63 62.537C264.531 61.4181 264.973 60.0937 264.973 58.612H262.973ZM262.072 61.283C261.526 61.962 260.642 62.4531 259.272 62.6546L259.563 64.6334C261.275 64.3816 262.681 63.7167 263.63 62.537L262.072 61.283ZM258.417 63.644V63.678H260.417V63.644H258.417ZM259.287 64.6695C260.852 64.8754 261.872 65.401 262.501 66.1322L264.017 64.8278C262.969 63.6097 261.427 62.9339 259.548 62.6865L259.287 64.6695ZM262.518 66.1509C263.202 66.9075 263.551 67.8199 263.551 68.948H265.551C265.551 67.3561 265.039 65.9565 264.001 64.8091L262.518 66.1509ZM263.551 68.948C263.551 70.6014 262.976 71.7893 261.867 72.6439L263.088 74.2281C264.744 72.952 265.551 71.1479 265.551 68.948H263.551ZM261.869 72.6424C260.758 73.4938 258.987 74 256.391 74V76C259.19 76 261.476 75.4635 263.086 74.2296L261.869 72.6424ZM256.391 74H244.967V76H256.391V74ZM250.611 62.74H254.861V60.74H250.611V62.74ZM254.861 62.74C256.007 62.74 257.05 62.5205 257.824 61.9155C258.643 61.274 258.989 60.3364 258.989 59.292H256.989C256.989 59.8796 256.814 60.166 256.591 60.3405C256.321 60.5515 255.801 60.74 254.861 60.74V62.74ZM258.989 59.292C258.989 58.2476 258.643 57.31 257.824 56.6685C257.05 56.0635 256.007 55.844 254.861 55.844V57.844C255.801 57.844 256.321 58.0325 256.591 58.2435C256.814 58.418 256.989 58.7044 256.989 59.292H258.989ZM254.861 55.844H250.611V57.844H254.861V55.844ZM249.611 56.844V61.74H251.611V56.844H249.611ZM250.611 71.886H255.405V69.886H250.611V71.886ZM255.405 71.886C256.565 71.886 257.62 71.6597 258.399 71.0395C259.222 70.3846 259.567 69.4312 259.567 68.37H257.567C257.567 68.9861 257.385 69.2907 257.154 69.4745C256.88 69.693 256.353 69.886 255.405 69.886V71.886ZM259.567 68.37C259.567 67.3217 259.216 66.3833 258.389 65.7433C257.611 65.1408 256.56 64.922 255.405 64.922V66.922C256.358 66.922 256.889 67.1112 257.165 67.3247C257.392 67.5007 257.567 67.7863 257.567 68.37H259.567ZM255.405 64.922H250.611V66.922H255.405V64.922ZM249.611 65.922V70.886H251.611V65.922H249.611ZM280.245 63.542H281.245V62.542H280.245V63.542ZM280.245 68.268V69.268H281.245V68.268H280.245ZM267.801 68.268H266.801V69.268H267.801V68.268ZM267.801 63.542V62.542H266.801V63.542H267.801ZM279.245 63.542V68.268H281.245V63.542H279.245ZM280.245 67.268H267.801V69.268H280.245V67.268ZM268.801 68.268V63.542H266.801V68.268H268.801ZM267.801 64.542H280.245V62.542H267.801V64.542ZM310.788 52.56H311.788V51.56H310.788V52.56ZM310.788 75V76H311.788V75H310.788ZM305.62 75H304.62V76H305.62V75ZM305.62 64.698L304.621 64.6734L304.62 64.6857V64.698H305.62ZM305.79 57.796L306.79 57.8206L306.815 56.796H305.79V57.796ZM305.722 57.796V56.796H304.994L304.77 57.4894L305.722 57.796ZM300.18 75V76H300.909L301.132 75.3066L300.18 75ZM295.454 75L294.502 75.3066L294.726 76H295.454V75ZM289.912 57.796L290.864 57.4894L290.641 56.796H289.912V57.796ZM289.844 57.796V56.796H288.819L288.845 57.8206L289.844 57.796ZM290.014 64.698H291.014V64.6857L291.014 64.6734L290.014 64.698ZM290.014 75V76H291.014V75H290.014ZM284.812 75H283.812V76H284.812V75ZM284.812 52.56V51.56H283.812V52.56H284.812ZM293.142 52.56L294.098 52.2643L293.88 51.56H293.142V52.56ZM296.678 63.984L297.645 63.7285L297.64 63.7083L297.634 63.6883L296.678 63.984ZM297.936 68.744L296.969 68.9995L297.166 69.744H297.936V68.744ZM298.004 68.744V69.744H298.768L298.969 69.0077L298.004 68.744ZM299.296 64.018L298.34 63.7257L298.336 63.7399L298.332 63.7543L299.296 64.018ZM302.798 52.56V51.56H302.058L301.842 52.2677L302.798 52.56ZM309.788 52.56V75H311.788V52.56H309.788ZM310.788 74H305.62V76H310.788V74ZM306.62 75V64.698H304.62V75H306.62ZM306.62 64.7226L306.79 57.8206L304.791 57.7714L304.621 64.6734L306.62 64.7226ZM305.79 56.796H305.722V58.796H305.79V56.796ZM304.77 57.4894L299.228 74.6934L301.132 75.3066L306.674 58.1026L304.77 57.4894ZM300.18 74H295.454V76H300.18V74ZM296.406 74.6934L290.864 57.4894L288.96 58.1026L294.502 75.3066L296.406 74.6934ZM289.912 56.796H289.844V58.796H289.912V56.796ZM288.845 57.8206L289.015 64.7226L291.014 64.6734L290.844 57.7714L288.845 57.8206ZM289.014 64.698V75H291.014V64.698H289.014ZM290.014 74H284.812V76H290.014V74ZM285.812 75V52.56H283.812V75H285.812ZM284.812 53.56H293.142V51.56H284.812V53.56ZM292.187 52.8557L295.723 64.2797L297.634 63.6883L294.098 52.2643L292.187 52.8557ZM295.711 64.2395L296.969 68.9995L298.903 68.4885L297.645 63.7285L295.711 64.2395ZM297.936 69.744H298.004V67.744H297.936V69.744ZM298.969 69.0077L300.261 64.2817L298.332 63.7543L297.04 68.4803L298.969 69.0077ZM300.253 64.3103L303.755 52.8523L301.842 52.2677L298.34 63.7257L300.253 64.3103ZM302.798 53.56H310.788V51.56H302.798V53.56ZM315.078 75H314.078V76H315.078V75ZM315.078 52.56V51.56H314.078V52.56H315.078ZM332.554 52.56H333.554V51.56H332.554V52.56ZM332.554 57.082V58.082H333.554V57.082H332.554ZM320.926 57.082V56.082H319.926V57.082H320.926ZM320.926 61.638H319.926V62.638H320.926V61.638ZM330.174 61.638H331.174V60.638H330.174V61.638ZM330.174 65.888V66.888H331.174V65.888H330.174ZM320.926 65.888V64.888H319.926V65.888H320.926ZM320.926 70.478H319.926V71.478H320.926V70.478ZM332.996 70.478H333.996V69.478H332.996V70.478ZM332.996 75V76H333.996V75H332.996ZM316.078 75V52.56H314.078V75H316.078ZM315.078 53.56H332.554V51.56H315.078V53.56ZM331.554 52.56V57.082H333.554V52.56H331.554ZM332.554 56.082H320.926V58.082H332.554V56.082ZM319.926 57.082V61.638H321.926V57.082H319.926ZM320.926 62.638H330.174V60.638H320.926V62.638ZM329.174 61.638V65.888H331.174V61.638H329.174ZM330.174 64.888H320.926V66.888H330.174V64.888ZM319.926 65.888V70.478H321.926V65.888H319.926ZM320.926 71.478H332.996V69.478H320.926V71.478ZM331.996 70.478V75H333.996V70.478H331.996ZM332.996 74H315.078V76H332.996V74ZM353.425 55.484L352.701 56.1741L352.705 56.1784L353.425 55.484ZM353.425 72.076L352.705 71.3815L352.701 71.3859L353.425 72.076ZM335.847 75H334.847V76H335.847V75ZM335.847 52.56V51.56H334.847V52.56H335.847ZM348.937 68.88L348.142 68.2725L348.141 68.2749L348.937 68.88ZM348.937 58.714L348.135 59.3115L348.142 59.3203L348.148 59.329L348.937 58.714ZM341.695 56.98V55.98H340.695V56.98H341.695ZM341.695 70.58H340.695V71.58H341.695V70.58ZM345.367 53.56C348.694 53.56 351.084 54.478 352.701 56.1741L354.149 54.7939C352.048 52.5913 349.066 51.56 345.367 51.56V53.56ZM352.705 56.1784C354.355 57.8875 355.247 60.3718 355.247 63.78H357.247C357.247 60.0256 356.258 56.9791 354.144 54.7896L352.705 56.1784ZM355.247 63.78C355.247 67.1882 354.355 69.6725 352.705 71.3816L354.144 72.7704C356.258 70.5809 357.247 67.5344 357.247 63.78H355.247ZM352.701 71.3859C351.084 73.082 348.694 74 345.367 74V76C349.066 76 352.048 74.9687 354.149 72.7661L352.701 71.3859ZM345.367 74H335.847V76H345.367V74ZM336.847 75V52.56H334.847V75H336.847ZM335.847 53.56H345.367V51.56H335.847V53.56ZM344.789 71.58C346.891 71.58 348.623 70.9458 349.733 69.4851L348.141 68.2749C347.528 69.0809 346.494 69.58 344.789 69.58V71.58ZM349.731 69.4874C350.804 68.0851 351.263 66.1314 351.263 63.78H349.263C349.263 65.9166 348.838 67.3629 348.142 68.2725L349.731 69.4874ZM351.263 63.78C351.263 61.4307 350.804 59.4824 349.725 58.099L348.148 59.329C348.837 60.2122 349.263 61.6413 349.263 63.78H351.263ZM349.739 58.1165C348.631 56.6301 346.898 55.98 344.789 55.98V57.98C346.487 57.98 347.52 58.4858 348.135 59.3115L349.739 58.1165ZM344.789 55.98H341.695V57.98H344.789V55.98ZM340.695 56.98V70.58H342.695V56.98H340.695ZM341.695 71.58H344.789V69.58H341.695V71.58Z" fill="#000F43"/>
<defs>
<clipPath id="clip0_313_48">
<rect width="205" height="99" fill="white"/>
</clipPath>
</defs>
</svg>
